<?xml version="1.0" standalone="no"?>
<!-- Copyright (c) DY INTERACTIVE. Tüm hakları saklıdır. Ticari kullanım yasal sorumluluk doğurur. -->
<!DOCTYPE svg PUBLIC "-//W3C//DTD SVG 1.1//EN" "http://www.w3.org/Graphics/SVG/1.1/DTD/svg11.dtd">
<svg width="240" height="240" version="1.1" xmlns="http://www.w3.org/2000/svg">
<g fill="none" stroke="#000000" stroke-width="4" stroke-linecap="round" stroke-linejoin="round">
<path d="M 160.0000,120.0000 A 40.0000,40.0000 0 0,1 154.6410,140.0000" />
<path d="M 140.0000,154.6410 A 40.0000,40.0000 0 0,1 120.0000,160.0000" />
<path d="M 120.0000,160.0000 L 120.0000,180.0000" stroke="#000000" stroke-width="4" stroke-opacity="1.0" />
<path d="M 120.0000,160.0000 A 40.0000,40.0000 0 0,1 100.0000,154.6410" />
<path d="M 100.0000,154.6410 A 40.0000,40.0000 0 0,1 85.3590,140.0000" />
<path d="M 85.3590,140.0000 A 40.0000,40.0000 0 0,1 80.0000,120.0000" />
<path d="M 80.0000,120.0000 A 40.0000,40.0000 0 0,1 85.3590,100.0000" />
<path d="M 85.3590,100.0000 A 40.0000,40.0000 0 0,1 100.0000,85.3590" />
<path d="M 100.0000,85.3590 A 40.0000,40.0000 0 0,1 120.0000,80.0000" />
<path d="M 120.0000,80.0000 A 40.0000,40.0000 0 0,1 140.0000,85.3590" />
<path d="M 140.0000,85.3590 A 40.0000,40.0000 0 0,1 154.6410,100.0000" />
<path d="M 154.6410,100.0000 A 40.0000,40.0000 0 0,1 160.0000,120.0000" />
<path d="M 180.0000,120.0000 A 60.0000,60.0000 0 0,1 171.9615,150.0000" />
<path d="M 171.9615,150.0000 A 60.0000,60.0000 0 0,1 150.0000,171.9615" />
<path d="M 150.0000,171.9615 L 160.0000,189.2820" stroke="#000000" stroke-width="4" stroke-opacity="1.0" />
<path d="M 150.0000,171.9615 A 60.0000,60.0000 0 0,1 120.0000,180.0000" />
<path d="M 90.0000,171.9615 L 80.0000,189.2820" stroke="#000000" stroke-width="4" stroke-opacity="1.0" />
<path d="M 90.0000,171.9615 A 60.0000,60.0000 0 0,1 68.0385,150.0000" />
<path d="M 68.0385,150.0000 A 60.0000,60.0000 0 0,1 60.0000,120.0000" />
<path d="M 60.0000,120.0000 L 40.0000,120.0000" stroke="#000000" stroke-width="4" stroke-opacity="1.0" />
<path d="M 60.0000,120.0000 A 60.0000,60.0000 0 0,1 68.0385,90.0000" />
<path d="M 68.0385,90.0000 A 60.0000,60.0000 0 0,1 90.0000,68.0385" />
<path d="M 120.0000,60.0000 L 120.0000,40.0000" stroke="#000000" stroke-width="4" stroke-opacity="1.0" />
<path d="M 120.0000,60.0000 A 60.0000,60.0000 0 0,1 150.0000,68.0385" />
<path d="M 150.0000,68.0385 A 60.0000,60.0000 0 0,1 171.9615,90.0000" />
<path d="M 171.9615,90.0000 A 60.0000,60.0000 0 0,1 180.0000,120.0000" />
<path d="M 200.0000,120.0000 A 80.0000,80.0000 0 0,1 189.2820,160.0000" />
<path d="M 220.0000,120.0000 A 100.0000,100.0000 0 0,1 206.6025,170.0000" />
<path d="M 189.2820,160.0000 L 206.6025,170.0000" stroke="#000000" stroke-width="4" stroke-opacity="1.0" />
<path d="M 206.6025,170.0000 A 100.0000,100.0000 0 0,1 170.0000,206.6025" />
<path d="M 170.0000,206.6025 A 100.0000,100.0000 0 0,1 120.0000,220.0000" />
<path d="M 120.0000,200.0000 A 80.0000,80.0000 0 0,1 80.0000,189.2820" />
<path d="M 120.0000,220.0000 A 100.0000,100.0000 0 0,1 70.0000,206.6025" />
<path d="M 80.0000,189.2820 L 70.0000,206.6025" stroke="#000000" stroke-width="4" stroke-opacity="1.0" />
<path d="M 80.0000,189.2820 A 80.0000,80.0000 0 0,1 50.7180,160.0000" />
<path d="M 70.0000,206.6025 A 100.0000,100.0000 0 0,1 33.3975,170.0000" />
<path d="M 33.3975,170.0000 A 100.0000,100.0000 0 0,1 20.0000,120.0000" />
<path d="M 40.0000,120.0000 A 80.0000,80.0000 0 0,1 50.7180,80.0000" />
<path d="M 20.0000,120.0000 A 100.0000,100.0000 0 0,1 33.3975,70.0000" />
<path d="M 33.3975,70.0000 A 100.0000,100.0000 0 0,1 70.0000,33.3975" />
<path d="M 80.0000,50.7180 L 70.0000,33.3975" stroke="#000000" stroke-width="4" stroke-opacity="1.0" />
<path d="M 80.0000,50.7180 A 80.0000,80.0000 0 0,1 120.0000,40.0000" />
<path d="M 120.0000,40.0000 A 80.0000,80.0000 0 0,1 160.0000,50.7180" />
<path d="M 120.0000,20.0000 A 100.0000,100.0000 0 0,1 170.0000,33.3975" />
<path d="M 170.0000,33.3975 A 100.0000,100.0000 0 0,1 206.6025,70.0000" />
<path d="M 189.2820,80.0000 A 80.0000,80.0000 0 0,1 200.0000,120.0000" />
<path d="M 206.6025,70.0000 A 100.0000,100.0000 0 0,1 220.0000,120.0000" />
</g>
</svg>