<?xml version="1.0" standalone="no"?>
<!-- Copyright (c) DY INTERACTIVE. Tüm hakları saklıdır. Ticari kullanım yasal sorumluluk doğurur. -->
<!DOCTYPE svg PUBLIC "-//W3C//DTD SVG 1.1//EN" "http://www.w3.org/Graphics/SVG/1.1/DTD/svg11.dtd">
<svg width="280" height="280" version="1.1" xmlns="http://www.w3.org/2000/svg">
<g fill="none" stroke="#000000" stroke-width="4" stroke-linecap="round" stroke-linejoin="round">
<path d="M 180.0000,140.0000 A 40.0000,40.0000 0 0,1 176.9552,155.3073" />
<path d="M 176.9552,155.3073 A 40.0000,40.0000 0 0,1 168.2843,168.2843" />
<path d="M 168.2843,168.2843 A 40.0000,40.0000 0 0,1 155.3073,176.9552" />
<path d="M 155.3073,176.9552 A 40.0000,40.0000 0 0,1 140.0000,180.0000" />
<path d="M 140.0000,180.0000 A 40.0000,40.0000 0 0,1 124.6927,176.9552" />
<path d="M 124.6927,176.9552 A 40.0000,40.0000 0 0,1 111.7157,168.2843" />
<path d="M 111.7157,168.2843 A 40.0000,40.0000 0 0,1 103.0448,155.3073" />
<path d="M 103.0448,155.3073 A 40.0000,40.0000 0 0,1 100.0000,140.0000" />
<path d="M 111.7157,111.7157 L 97.5736,97.5736" stroke="#000000" stroke-width="4" stroke-opacity="1.0" />
<path d="M 111.7157,111.7157 A 40.0000,40.0000 0 0,1 124.6927,103.0448" />
<path d="M 124.6927,103.0448 A 40.0000,40.0000 0 0,1 140.0000,100.0000" />
<path d="M 140.0000,100.0000 A 40.0000,40.0000 0 0,1 155.3073,103.0448" />
<path d="M 155.3073,103.0448 A 40.0000,40.0000 0 0,1 168.2843,111.7157" />
<path d="M 168.2843,111.7157 A 40.0000,40.0000 0 0,1 176.9552,124.6927" />
<path d="M 176.9552,124.6927 A 40.0000,40.0000 0 0,1 180.0000,140.0000" />
<path d="M 180.0000,140.0000 L 200.0000,140.0000" stroke="#000000" stroke-width="4" stroke-opacity="1.0" />
<path d="M 200.0000,140.0000 A 60.0000,60.0000 0 0,1 195.4328,162.9610" />
<path d="M 195.4328,162.9610 A 60.0000,60.0000 0 0,1 182.4264,182.4264" />
<path d="M 182.4264,182.4264 A 60.0000,60.0000 0 0,1 162.9610,195.4328" />
<path d="M 162.9610,195.4328 A 60.0000,60.0000 0 0,1 140.0000,200.0000" />
<path d="M 140.0000,200.0000 A 60.0000,60.0000 0 0,1 117.0390,195.4328" />
<path d="M 117.0390,195.4328 A 60.0000,60.0000 0 0,1 97.5736,182.4264" />
<path d="M 97.5736,182.4264 A 60.0000,60.0000 0 0,1 84.5672,162.9610" />
<path d="M 84.5672,162.9610 A 60.0000,60.0000 0 0,1 80.0000,140.0000" />
<path d="M 97.5736,97.5736 A 60.0000,60.0000 0 0,1 117.0390,84.5672" />
<path d="M 117.0390,84.5672 A 60.0000,60.0000 0 0,1 140.0000,80.0000" />
<path d="M 140.0000,80.0000 A 60.0000,60.0000 0 0,1 162.9610,84.5672" />
<path d="M 162.9610,84.5672 A 60.0000,60.0000 0 0,1 182.4264,97.5736" />
<path d="M 182.4264,97.5736 A 60.0000,60.0000 0 0,1 195.4328,117.0390" />
<path d="M 200.0000,140.0000 L 220.0000,140.0000" stroke="#000000" stroke-width="4" stroke-opacity="1.0" />
<path d="M 213.9104,170.6147 A 80.0000,80.0000 0 0,1 196.5685,196.5685" />
<path d="M 196.5685,196.5685 A 80.0000,80.0000 0 0,1 170.6147,213.9104" />
<path d="M 170.6147,213.9104 A 80.0000,80.0000 0 0,1 140.0000,220.0000" />
<path d="M 140.0000,220.0000 A 80.0000,80.0000 0 0,1 109.3853,213.9104" />
<path d="M 109.3853,213.9104 A 80.0000,80.0000 0 0,1 83.4315,196.5685" />
<path d="M 83.4315,196.5685 A 80.0000,80.0000 0 0,1 66.0896,170.6147" />
<path d="M 66.0896,170.6147 A 80.0000,80.0000 0 0,1 60.0000,140.0000" />
<path d="M 60.0000,140.0000 L 40.0000,140.0000" stroke="#000000" stroke-width="4" stroke-opacity="1.0" />
<path d="M 83.4315,83.4315 L 69.2893,69.2893" stroke="#000000" stroke-width="4" stroke-opacity="1.0" />
<path d="M 83.4315,83.4315 A 80.0000,80.0000 0 0,1 109.3853,66.0896" />
<path d="M 109.3853,66.0896 A 80.0000,80.0000 0 0,1 140.0000,60.0000" />
<path d="M 140.0000,60.0000 A 80.0000,80.0000 0 0,1 170.6147,66.0896" />
<path d="M 170.6147,66.0896 A 80.0000,80.0000 0 0,1 196.5685,83.4315" />
<path d="M 196.5685,83.4315 A 80.0000,80.0000 0 0,1 213.9104,109.3853" />
<path d="M 213.9104,109.3853 A 80.0000,80.0000 0 0,1 220.0000,140.0000" />
<path d="M 240.0000,140.0000 A 100.0000,100.0000 0 0,1 232.3880,178.2683" />
<path d="M 232.3880,178.2683 L 250.8655,185.9220" stroke="#000000" stroke-width="4" stroke-opacity="1.0" />
<path d="M 232.3880,178.2683 A 100.0000,100.0000 0 0,1 210.7107,210.7107" />
<path d="M 250.8655,185.9220 A 120.0000,120.0000 0 0,1 224.8528,224.8528" />
<path d="M 210.7107,210.7107 A 100.0000,100.0000 0 0,1 178.2683,232.3880" />
<path d="M 224.8528,224.8528 A 120.0000,120.0000 0 0,1 185.9220,250.8655" />
<path d="M 178.2683,232.3880 A 100.0000,100.0000 0 0,1 140.0000,240.0000" />
<path d="M 185.9220,250.8655 A 120.0000,120.0000 0 0,1 140.0000,260.0000" />
<path d="M 140.0000,240.0000 A 100.0000,100.0000 0 0,1 101.7317,232.3880" />
<path d="M 140.0000,260.0000 A 120.0000,120.0000 0 0,1 94.0780,250.8655" />
<path d="M 101.7317,232.3880 A 100.0000,100.0000 0 0,1 69.2893,210.7107" />
<path d="M 94.0780,250.8655 A 120.0000,120.0000 0 0,1 55.1472,224.8528" />
<path d="M 69.2893,210.7107 A 100.0000,100.0000 0 0,1 47.6120,178.2683" />
<path d="M 55.1472,224.8528 A 120.0000,120.0000 0 0,1 29.1345,185.9220" />
<path d="M 47.6120,178.2683 A 100.0000,100.0000 0 0,1 40.0000,140.0000" />
<path d="M 29.1345,185.9220 A 120.0000,120.0000 0 0,1 20.0000,140.0000" />
<path d="M 20.0000,140.0000 A 120.0000,120.0000 0 0,1 29.1345,94.0780" />
<path d="M 29.1345,94.0780 A 120.0000,120.0000 0 0,1 55.1472,55.1472" />
<path d="M 69.2893,69.2893 L 55.1472,55.1472" stroke="#000000" stroke-width="4" stroke-opacity="1.0" />
<path d="M 55.1472,55.1472 A 120.0000,120.0000 0 0,1 94.0780,29.1345" />
<path d="M 101.7317,47.6120 A 100.0000,100.0000 0 0,1 140.0000,40.0000" />
<path d="M 94.0780,29.1345 A 120.0000,120.0000 0 0,1 140.0000,20.0000" />
<path d="M 140.0000,40.0000 A 100.0000,100.0000 0 0,1 178.2683,47.6120" />
<path d="M 140.0000,20.0000 A 120.0000,120.0000 0 0,1 185.9220,29.1345" />
<path d="M 178.2683,47.6120 A 100.0000,100.0000 0 0,1 210.7107,69.2893" />
<path d="M 185.9220,29.1345 A 120.0000,120.0000 0 0,1 224.8528,55.1472" />
<path d="M 210.7107,69.2893 A 100.0000,100.0000 0 0,1 232.3880,101.7317" />
<path d="M 224.8528,55.1472 A 120.0000,120.0000 0 0,1 250.8655,94.0780" />
<path d="M 232.3880,101.7317 A 100.0000,100.0000 0 0,1 240.0000,140.0000" />
<path d="M 250.8655,94.0780 A 120.0000,120.0000 0 0,1 260.0000,140.0000" />
</g>
</svg>