<?xml version="1.0" standalone="no"?>
<!-- Copyright (c) DY INTERACTIVE. Tüm hakları saklıdır. Ticari kullanım yasal sorumluluk doğurur. -->
<!DOCTYPE svg PUBLIC "-//W3C//DTD SVG 1.1//EN" "http://www.w3.org/Graphics/SVG/1.1/DTD/svg11.dtd">
<svg width="200" height="200" version="1.1" xmlns="http://www.w3.org/2000/svg">
<g fill="none" stroke="#000000" stroke-width="4" stroke-linecap="round" stroke-linejoin="round">
<path d="M 140.0000,100.0000 A 40.0000,40.0000 0 0,1 132.3607,123.5114" />
<path d="M 132.3607,123.5114 L 148.5410,135.2671" stroke="#000000" stroke-width="4" stroke-opacity="1.0" />
<path d="M 132.3607,123.5114 A 40.0000,40.0000 0 0,1 112.3607,138.0423" />
<path d="M 112.3607,138.0423 A 40.0000,40.0000 0 0,1 87.6393,138.0423" />
<path d="M 87.6393,138.0423 A 40.0000,40.0000 0 0,1 67.6393,123.5114" />
<path d="M 67.6393,123.5114 A 40.0000,40.0000 0 0,1 60.0000,100.0000" />
<path d="M 60.0000,100.0000 A 40.0000,40.0000 0 0,1 67.6393,76.4886" />
<path d="M 67.6393,76.4886 A 40.0000,40.0000 0 0,1 87.6393,61.9577" />
<path d="M 132.3607,76.4886 A 40.0000,40.0000 0 0,1 140.0000,100.0000" />
<path d="M 180.0000,100.0000 A 80.0000,80.0000 0 0,1 164.7214,147.0228" />
<path d="M 148.5410,135.2671 L 164.7214,147.0228" stroke="#000000" stroke-width="4" stroke-opacity="1.0" />
<path d="M 148.5410,135.2671 A 60.0000,60.0000 0 0,1 118.5410,157.0634" />
<path d="M 164.7214,147.0228 A 80.0000,80.0000 0 0,1 124.7214,176.0845" />
<path d="M 118.5410,157.0634 A 60.0000,60.0000 0 0,1 81.4590,157.0634" />
<path d="M 124.7214,176.0845 A 80.0000,80.0000 0 0,1 75.2786,176.0845" />
<path d="M 81.4590,157.0634 A 60.0000,60.0000 0 0,1 51.4590,135.2671" />
<path d="M 75.2786,176.0845 A 80.0000,80.0000 0 0,1 35.2786,147.0228" />
<path d="M 51.4590,135.2671 A 60.0000,60.0000 0 0,1 40.0000,100.0000" />
<path d="M 35.2786,147.0228 A 80.0000,80.0000 0 0,1 20.0000,100.0000" />
<path d="M 40.0000,100.0000 A 60.0000,60.0000 0 0,1 51.4590,64.7329" />
<path d="M 20.0000,100.0000 A 80.0000,80.0000 0 0,1 35.2786,52.9772" />
<path d="M 51.4590,64.7329 A 60.0000,60.0000 0 0,1 81.4590,42.9366" />
<path d="M 35.2786,52.9772 A 80.0000,80.0000 0 0,1 75.2786,23.9155" />
<path d="M 81.4590,42.9366 A 60.0000,60.0000 0 0,1 118.5410,42.9366" />
<path d="M 75.2786,23.9155 A 80.0000,80.0000 0 0,1 124.7214,23.9155" />
<path d="M 118.5410,42.9366 A 60.0000,60.0000 0 0,1 148.5410,64.7329" />
<path d="M 124.7214,23.9155 A 80.0000,80.0000 0 0,1 164.7214,52.9772" />
<path d="M 148.5410,64.7329 A 60.0000,60.0000 0 0,1 160.0000,100.0000" />
</g>
</svg>