<?xml version="1.0" standalone="no"?>
<!-- Copyright (c) DY INTERACTIVE. Tüm hakları saklıdır. Ticari kullanım yasal sorumluluk doğurur. -->
<!DOCTYPE svg PUBLIC "-//W3C//DTD SVG 1.1//EN" "http://www.w3.org/Graphics/SVG/1.1/DTD/svg11.dtd">
<svg width="300" height="300" version="1.1" xmlns="http://www.w3.org/2000/svg">
<g fill="none" stroke="#000000" stroke-width="4" stroke-linecap="round" stroke-linejoin="round">
<path d="M 167.6336,174.2705 A 30.0000,30.0000 0 0,1 159.2705,178.5317" />
<path d="M 159.2705,178.5317 A 30.0000,30.0000 0 0,1 150.0000,180.0000" />
<path d="M 150.0000,180.0000 A 30.0000,30.0000 0 0,1 140.7295,178.5317" />
<path d="M 140.7295,178.5317 A 30.0000,30.0000 0 0,1 132.3664,174.2705" />
<path d="M 132.3664,174.2705 A 30.0000,30.0000 0 0,1 125.7295,167.6336" />
<path d="M 125.7295,167.6336 L 109.5492,179.3893" stroke="#000000" stroke-width="4" stroke-opacity="1.0" />
<path d="M 125.7295,167.6336 A 30.0000,30.0000 0 0,1 121.4683,159.2705" />
<path d="M 121.4683,159.2705 A 30.0000,30.0000 0 0,1 120.0000,150.0000" />
<path d="M 120.0000,150.0000 A 30.0000,30.0000 0 0,1 121.4683,140.7295" />
<path d="M 121.4683,140.7295 A 30.0000,30.0000 0 0,1 125.7295,132.3664" />
<path d="M 125.7295,132.3664 A 30.0000,30.0000 0 0,1 132.3664,125.7295" />
<path d="M 132.3664,125.7295 A 30.0000,30.0000 0 0,1 140.7295,121.4683" />
<path d="M 140.7295,121.4683 A 30.0000,30.0000 0 0,1 150.0000,120.0000" />
<path d="M 174.2705,132.3664 A 30.0000,30.0000 0 0,1 178.5317,140.7295" />
<path d="M 178.5317,140.7295 L 197.5528,134.5492" stroke="#000000" stroke-width="4" stroke-opacity="1.0" />
<path d="M 178.5317,140.7295 A 30.0000,30.0000 0 0,1 180.0000,150.0000" />
<path d="M 200.0000,150.0000 A 50.0000,50.0000 0 0,1 197.5528,165.4508" />
<path d="M 197.5528,165.4508 L 216.5740,171.6312" stroke="#000000" stroke-width="4" stroke-opacity="1.0" />
<path d="M 197.5528,165.4508 A 50.0000,50.0000 0 0,1 190.4508,179.3893" />
<path d="M 190.4508,179.3893 A 50.0000,50.0000 0 0,1 179.3893,190.4508" />
<path d="M 179.3893,190.4508 L 191.1450,206.6312" stroke="#000000" stroke-width="4" stroke-opacity="1.0" />
<path d="M 179.3893,190.4508 A 50.0000,50.0000 0 0,1 165.4508,197.5528" />
<path d="M 134.5492,197.5528 A 50.0000,50.0000 0 0,1 120.6107,190.4508" />
<path d="M 120.6107,190.4508 A 50.0000,50.0000 0 0,1 109.5492,179.3893" />
<path d="M 109.5492,179.3893 L 93.3688,191.1450" stroke="#000000" stroke-width="4" stroke-opacity="1.0" />
<path d="M 100.0000,150.0000 A 50.0000,50.0000 0 0,1 102.4472,134.5492" />
<path d="M 102.4472,134.5492 A 50.0000,50.0000 0 0,1 109.5492,120.6107" />
<path d="M 109.5492,120.6107 A 50.0000,50.0000 0 0,1 120.6107,109.5492" />
<path d="M 120.6107,109.5492 L 108.8550,93.3688" stroke="#000000" stroke-width="4" stroke-opacity="1.0" />
<path d="M 120.6107,109.5492 A 50.0000,50.0000 0 0,1 134.5492,102.4472" />
<path d="M 134.5492,102.4472 A 50.0000,50.0000 0 0,1 150.0000,100.0000" />
<path d="M 150.0000,100.0000 L 150.0000,80.0000" stroke="#000000" stroke-width="4" stroke-opacity="1.0" />
<path d="M 150.0000,100.0000 A 50.0000,50.0000 0 0,1 165.4508,102.4472" />
<path d="M 165.4508,102.4472 A 50.0000,50.0000 0 0,1 179.3893,109.5492" />
<path d="M 179.3893,109.5492 A 50.0000,50.0000 0 0,1 190.4508,120.6107" />
<path d="M 190.4508,120.6107 A 50.0000,50.0000 0 0,1 197.5528,134.5492" />
<path d="M 197.5528,134.5492 A 50.0000,50.0000 0 0,1 200.0000,150.0000" />
<path d="M 220.0000,150.0000 A 70.0000,70.0000 0 0,1 216.5740,171.6312" />
<path d="M 206.6312,191.1450 L 222.8115,202.9007" stroke="#000000" stroke-width="4" stroke-opacity="1.0" />
<path d="M 171.6312,216.5740 L 177.8115,235.5951" stroke="#000000" stroke-width="4" stroke-opacity="1.0" />
<path d="M 150.0000,220.0000 L 150.0000,240.0000" stroke="#000000" stroke-width="4" stroke-opacity="1.0" />
<path d="M 150.0000,220.0000 A 70.0000,70.0000 0 0,1 128.3688,216.5740" />
<path d="M 128.3688,216.5740 A 70.0000,70.0000 0 0,1 108.8550,206.6312" />
<path d="M 93.3688,191.1450 A 70.0000,70.0000 0 0,1 83.4260,171.6312" />
<path d="M 83.4260,171.6312 L 64.4049,177.8115" stroke="#000000" stroke-width="4" stroke-opacity="1.0" />
<path d="M 83.4260,171.6312 A 70.0000,70.0000 0 0,1 80.0000,150.0000" />
<path d="M 80.0000,150.0000 A 70.0000,70.0000 0 0,1 83.4260,128.3688" />
<path d="M 108.8550,93.3688 L 97.0993,77.1885" stroke="#000000" stroke-width="4" stroke-opacity="1.0" />
<path d="M 128.3688,83.4260 L 122.1885,64.4049" stroke="#000000" stroke-width="4" stroke-opacity="1.0" />
<path d="M 171.6312,83.4260 L 177.8115,64.4049" stroke="#000000" stroke-width="4" stroke-opacity="1.0" />
<path d="M 191.1450,93.3688 A 70.0000,70.0000 0 0,1 206.6312,108.8550" />
<path d="M 206.6312,108.8550 L 222.8115,97.0993" stroke="#000000" stroke-width="4" stroke-opacity="1.0" />
<path d="M 206.6312,108.8550 A 70.0000,70.0000 0 0,1 216.5740,128.3688" />
<path d="M 220.0000,150.0000 L 240.0000,150.0000" stroke="#000000" stroke-width="4" stroke-opacity="1.0" />
<path d="M 235.5951,177.8115 L 254.6162,183.9919" stroke="#000000" stroke-width="4" stroke-opacity="1.0" />
<path d="M 222.8115,202.9007 A 90.0000,90.0000 0 0,1 202.9007,222.8115" />
<path d="M 202.9007,222.8115 A 90.0000,90.0000 0 0,1 177.8115,235.5951" />
<path d="M 177.8115,235.5951 A 90.0000,90.0000 0 0,1 150.0000,240.0000" />
<path d="M 122.1885,235.5951 L 116.0081,254.6162" stroke="#000000" stroke-width="4" stroke-opacity="1.0" />
<path d="M 97.0993,222.8115 L 85.3436,238.9919" stroke="#000000" stroke-width="4" stroke-opacity="1.0" />
<path d="M 77.1885,202.9007 L 61.0081,214.6564" stroke="#000000" stroke-width="4" stroke-opacity="1.0" />
<path d="M 64.4049,177.8115 L 45.3838,183.9919" stroke="#000000" stroke-width="4" stroke-opacity="1.0" />
<path d="M 64.4049,177.8115 A 90.0000,90.0000 0 0,1 60.0000,150.0000" />
<path d="M 60.0000,150.0000 A 90.0000,90.0000 0 0,1 64.4049,122.1885" />
<path d="M 64.4049,122.1885 L 45.3838,116.0081" stroke="#000000" stroke-width="4" stroke-opacity="1.0" />
<path d="M 77.1885,97.0993 L 61.0081,85.3436" stroke="#000000" stroke-width="4" stroke-opacity="1.0" />
<path d="M 122.1885,64.4049 A 90.0000,90.0000 0 0,1 150.0000,60.0000" />
<path d="M 150.0000,60.0000 L 150.0000,40.0000" stroke="#000000" stroke-width="4" stroke-opacity="1.0" />
<path d="M 202.9007,77.1885 L 214.6564,61.0081" stroke="#000000" stroke-width="4" stroke-opacity="1.0" />
<path d="M 202.9007,77.1885 A 90.0000,90.0000 0 0,1 222.8115,97.0993" />
<path d="M 235.5951,122.1885 L 254.6162,116.0081" stroke="#000000" stroke-width="4" stroke-opacity="1.0" />
<path d="M 235.5951,122.1885 A 90.0000,90.0000 0 0,1 240.0000,150.0000" />
<path d="M 260.0000,150.0000 A 110.0000,110.0000 0 0,1 254.6162,183.9919" />
<path d="M 280.0000,150.0000 A 130.0000,130.0000 0 0,1 273.6373,190.1722" />
<path d="M 254.6162,183.9919 L 273.6373,190.1722" stroke="#000000" stroke-width="4" stroke-opacity="1.0" />
<path d="M 273.6373,190.1722 A 130.0000,130.0000 0 0,1 255.1722,226.4121" />
<path d="M 238.9919,214.6564 L 255.1722,226.4121" stroke="#000000" stroke-width="4" stroke-opacity="1.0" />
<path d="M 255.1722,226.4121 A 130.0000,130.0000 0 0,1 226.4121,255.1722" />
<path d="M 214.6564,238.9919 L 226.4121,255.1722" stroke="#000000" stroke-width="4" stroke-opacity="1.0" />
<path d="M 214.6564,238.9919 A 110.0000,110.0000 0 0,1 183.9919,254.6162" />
<path d="M 226.4121,255.1722 A 130.0000,130.0000 0 0,1 190.1722,273.6373" />
<path d="M 190.1722,273.6373 A 130.0000,130.0000 0 0,1 150.0000,280.0000" />
<path d="M 150.0000,260.0000 L 150.0000,280.0000" stroke="#000000" stroke-width="4" stroke-opacity="1.0" />
<path d="M 150.0000,280.0000 A 130.0000,130.0000 0 0,1 109.8278,273.6373" />
<path d="M 116.0081,254.6162 A 110.0000,110.0000 0 0,1 85.3436,238.9919" />
<path d="M 109.8278,273.6373 A 130.0000,130.0000 0 0,1 73.5879,255.1722" />
<path d="M 85.3436,238.9919 L 73.5879,255.1722" stroke="#000000" stroke-width="4" stroke-opacity="1.0" />
<path d="M 85.3436,238.9919 A 110.0000,110.0000 0 0,1 61.0081,214.6564" />
<path d="M 73.5879,255.1722 A 130.0000,130.0000 0 0,1 44.8278,226.4121" />
<path d="M 44.8278,226.4121 A 130.0000,130.0000 0 0,1 26.3627,190.1722" />
<path d="M 45.3838,183.9919 A 110.0000,110.0000 0 0,1 40.0000,150.0000" />
<path d="M 26.3627,190.1722 A 130.0000,130.0000 0 0,1 20.0000,150.0000" />
<path d="M 20.0000,150.0000 A 130.0000,130.0000 0 0,1 26.3627,109.8278" />
<path d="M 26.3627,109.8278 A 130.0000,130.0000 0 0,1 44.8278,73.5879" />
<path d="M 61.0081,85.3436 L 44.8278,73.5879" stroke="#000000" stroke-width="4" stroke-opacity="1.0" />
<path d="M 44.8278,73.5879 A 130.0000,130.0000 0 0,1 73.5879,44.8278" />
<path d="M 85.3436,61.0081 L 73.5879,44.8278" stroke="#000000" stroke-width="4" stroke-opacity="1.0" />
<path d="M 73.5879,44.8278 A 130.0000,130.0000 0 0,1 109.8278,26.3627" />
<path d="M 116.0081,45.3838 A 110.0000,110.0000 0 0,1 150.0000,40.0000" />
<path d="M 109.8278,26.3627 A 130.0000,130.0000 0 0,1 150.0000,20.0000" />
<path d="M 150.0000,40.0000 A 110.0000,110.0000 0 0,1 183.9919,45.3838" />
<path d="M 150.0000,20.0000 A 130.0000,130.0000 0 0,1 190.1722,26.3627" />
<path d="M 183.9919,45.3838 L 190.1722,26.3627" stroke="#000000" stroke-width="4" stroke-opacity="1.0" />
<path d="M 183.9919,45.3838 A 110.0000,110.0000 0 0,1 214.6564,61.0081" />
<path d="M 226.4121,44.8278 A 130.0000,130.0000 0 0,1 255.1722,73.5879" />
<path d="M 238.9919,85.3436 A 110.0000,110.0000 0 0,1 254.6162,116.0081" />
<path d="M 255.1722,73.5879 A 130.0000,130.0000 0 0,1 273.6373,109.8278" />
<path d="M 273.6373,109.8278 A 130.0000,130.0000 0 0,1 280.0000,150.0000" />
</g>
</svg>