<?xml version="1.0" standalone="no"?>
<!-- Copyright (c) DY INTERACTIVE. Tüm hakları saklıdır. Ticari kullanım yasal sorumluluk doğurur. -->
<!DOCTYPE svg PUBLIC "-//W3C//DTD SVG 1.1//EN" "http://www.w3.org/Graphics/SVG/1.1/DTD/svg11.dtd">
<svg width="320" height="320" version="1.1" xmlns="http://www.w3.org/2000/svg">
<g fill="none" stroke="#000000" stroke-width="4" stroke-linecap="round" stroke-linejoin="round">
<path d="M 179.3185,165.1764 A 20.0000,20.0000 0 0,1 177.3205,170.0000" />
<path d="M 177.3205,170.0000 A 20.0000,20.0000 0 0,1 174.1421,174.1421" />
<path d="M 174.1421,174.1421 A 20.0000,20.0000 0 0,1 170.0000,177.3205" />
<path d="M 170.0000,177.3205 A 20.0000,20.0000 0 0,1 165.1764,179.3185" />
<path d="M 165.1764,179.3185 A 20.0000,20.0000 0 0,1 160.0000,180.0000" />
<path d="M 160.0000,180.0000 A 20.0000,20.0000 0 0,1 154.8236,179.3185" />
<path d="M 154.8236,179.3185 A 20.0000,20.0000 0 0,1 150.0000,177.3205" />
<path d="M 150.0000,177.3205 A 20.0000,20.0000 0 0,1 145.8579,174.1421" />
<path d="M 145.8579,174.1421 A 20.0000,20.0000 0 0,1 142.6795,170.0000" />
<path d="M 142.6795,170.0000 A 20.0000,20.0000 0 0,1 140.6815,165.1764" />
<path d="M 140.6815,165.1764 A 20.0000,20.0000 0 0,1 140.0000,160.0000" />
<path d="M 140.0000,160.0000 A 20.0000,20.0000 0 0,1 140.6815,154.8236" />
<path d="M 140.6815,154.8236 L 121.3630,149.6472" stroke="#000000" stroke-width="4" stroke-opacity="1.0" />
<path d="M 140.6815,154.8236 A 20.0000,20.0000 0 0,1 142.6795,150.0000" />
<path d="M 142.6795,150.0000 A 20.0000,20.0000 0 0,1 145.8579,145.8579" />
<path d="M 145.8579,145.8579 A 20.0000,20.0000 0 0,1 150.0000,142.6795" />
<path d="M 150.0000,142.6795 A 20.0000,20.0000 0 0,1 154.8236,140.6815" />
<path d="M 154.8236,140.6815 A 20.0000,20.0000 0 0,1 160.0000,140.0000" />
<path d="M 160.0000,140.0000 A 20.0000,20.0000 0 0,1 165.1764,140.6815" />
<path d="M 165.1764,140.6815 A 20.0000,20.0000 0 0,1 170.0000,142.6795" />
<path d="M 170.0000,142.6795 A 20.0000,20.0000 0 0,1 174.1421,145.8579" />
<path d="M 174.1421,145.8579 A 20.0000,20.0000 0 0,1 177.3205,150.0000" />
<path d="M 194.6410,180.0000 L 211.9615,190.0000" stroke="#000000" stroke-width="4" stroke-opacity="1.0" />
<path d="M 194.6410,180.0000 A 40.0000,40.0000 0 0,1 188.2843,188.2843" />
<path d="M 188.2843,188.2843 A 40.0000,40.0000 0 0,1 180.0000,194.6410" />
<path d="M 180.0000,194.6410 A 40.0000,40.0000 0 0,1 170.3528,198.6370" />
<path d="M 170.3528,198.6370 A 40.0000,40.0000 0 0,1 160.0000,200.0000" />
<path d="M 160.0000,200.0000 A 40.0000,40.0000 0 0,1 149.6472,198.6370" />
<path d="M 149.6472,198.6370 A 40.0000,40.0000 0 0,1 140.0000,194.6410" />
<path d="M 140.0000,194.6410 L 130.0000,211.9615" stroke="#000000" stroke-width="4" stroke-opacity="1.0" />
<path d="M 140.0000,194.6410 A 40.0000,40.0000 0 0,1 131.7157,188.2843" />
<path d="M 131.7157,188.2843 A 40.0000,40.0000 0 0,1 125.3590,180.0000" />
<path d="M 125.3590,180.0000 A 40.0000,40.0000 0 0,1 121.3630,170.3528" />
<path d="M 121.3630,170.3528 L 102.0445,175.5291" stroke="#000000" stroke-width="4" stroke-opacity="1.0" />
<path d="M 121.3630,149.6472 A 40.0000,40.0000 0 0,1 125.3590,140.0000" />
<path d="M 125.3590,140.0000 A 40.0000,40.0000 0 0,1 131.7157,131.7157" />
<path d="M 131.7157,131.7157 A 40.0000,40.0000 0 0,1 140.0000,125.3590" />
<path d="M 140.0000,125.3590 A 40.0000,40.0000 0 0,1 149.6472,121.3630" />
<path d="M 149.6472,121.3630 L 144.4709,102.0445" stroke="#000000" stroke-width="4" stroke-opacity="1.0" />
<path d="M 170.3528,121.3630 A 40.0000,40.0000 0 0,1 180.0000,125.3590" />
<path d="M 180.0000,125.3590 A 40.0000,40.0000 0 0,1 188.2843,131.7157" />
<path d="M 188.2843,131.7157 A 40.0000,40.0000 0 0,1 194.6410,140.0000" />
<path d="M 194.6410,140.0000 A 40.0000,40.0000 0 0,1 198.6370,149.6472" />
<path d="M 198.6370,149.6472 A 40.0000,40.0000 0 0,1 200.0000,160.0000" />
<path d="M 217.9555,175.5291 L 237.2741,180.7055" stroke="#000000" stroke-width="4" stroke-opacity="1.0" />
<path d="M 217.9555,175.5291 A 60.0000,60.0000 0 0,1 211.9615,190.0000" />
<path d="M 190.0000,211.9615 L 200.0000,229.2820" stroke="#000000" stroke-width="4" stroke-opacity="1.0" />
<path d="M 190.0000,211.9615 A 60.0000,60.0000 0 0,1 175.5291,217.9555" />
<path d="M 160.0000,220.0000 A 60.0000,60.0000 0 0,1 144.4709,217.9555" />
<path d="M 144.4709,217.9555 A 60.0000,60.0000 0 0,1 130.0000,211.9615" />
<path d="M 130.0000,211.9615 L 120.0000,229.2820" stroke="#000000" stroke-width="4" stroke-opacity="1.0" />
<path d="M 117.5736,202.4264 L 103.4315,216.5685" stroke="#000000" stroke-width="4" stroke-opacity="1.0" />
<path d="M 108.0385,190.0000 A 60.0000,60.0000 0 0,1 102.0445,175.5291" />
<path d="M 102.0445,175.5291 A 60.0000,60.0000 0 0,1 100.0000,160.0000" />
<path d="M 102.0445,144.4709 L 82.7259,139.2945" stroke="#000000" stroke-width="4" stroke-opacity="1.0" />
<path d="M 102.0445,144.4709 A 60.0000,60.0000 0 0,1 108.0385,130.0000" />
<path d="M 108.0385,130.0000 A 60.0000,60.0000 0 0,1 117.5736,117.5736" />
<path d="M 117.5736,117.5736 A 60.0000,60.0000 0 0,1 130.0000,108.0385" />
<path d="M 130.0000,108.0385 L 120.0000,90.7180" stroke="#000000" stroke-width="4" stroke-opacity="1.0" />
<path d="M 144.4709,102.0445 A 60.0000,60.0000 0 0,1 160.0000,100.0000" />
<path d="M 190.0000,108.0385 L 200.0000,90.7180" stroke="#000000" stroke-width="4" stroke-opacity="1.0" />
<path d="M 190.0000,108.0385 A 60.0000,60.0000 0 0,1 202.4264,117.5736" />
<path d="M 202.4264,117.5736 A 60.0000,60.0000 0 0,1 211.9615,130.0000" />
<path d="M 211.9615,130.0000 L 229.2820,120.0000" stroke="#000000" stroke-width="4" stroke-opacity="1.0" />
<path d="M 211.9615,130.0000 A 60.0000,60.0000 0 0,1 217.9555,144.4709" />
<path d="M 217.9555,144.4709 L 237.2741,139.2945" stroke="#000000" stroke-width="4" stroke-opacity="1.0" />
<path d="M 217.9555,144.4709 A 60.0000,60.0000 0 0,1 220.0000,160.0000" />
<path d="M 220.0000,160.0000 L 240.0000,160.0000" stroke="#000000" stroke-width="4" stroke-opacity="1.0" />
<path d="M 237.2741,180.7055 A 80.0000,80.0000 0 0,1 229.2820,200.0000" />
<path d="M 229.2820,200.0000 L 246.6025,210.0000" stroke="#000000" stroke-width="4" stroke-opacity="1.0" />
<path d="M 229.2820,200.0000 A 80.0000,80.0000 0 0,1 216.5685,216.5685" />
<path d="M 216.5685,216.5685 L 230.7107,230.7107" stroke="#000000" stroke-width="4" stroke-opacity="1.0" />
<path d="M 180.7055,237.2741 L 185.8819,256.5926" stroke="#000000" stroke-width="4" stroke-opacity="1.0" />
<path d="M 160.0000,240.0000 L 160.0000,260.0000" stroke="#000000" stroke-width="4" stroke-opacity="1.0" />
<path d="M 139.2945,237.2741 A 80.0000,80.0000 0 0,1 120.0000,229.2820" />
<path d="M 120.0000,229.2820 L 110.0000,246.6025" stroke="#000000" stroke-width="4" stroke-opacity="1.0" />
<path d="M 103.4315,216.5685 L 89.2893,230.7107" stroke="#000000" stroke-width="4" stroke-opacity="1.0" />
<path d="M 90.7180,200.0000 L 73.3975,210.0000" stroke="#000000" stroke-width="4" stroke-opacity="1.0" />
<path d="M 82.7259,180.7055 L 63.4074,185.8819" stroke="#000000" stroke-width="4" stroke-opacity="1.0" />
<path d="M 80.0000,160.0000 L 60.0000,160.0000" stroke="#000000" stroke-width="4" stroke-opacity="1.0" />
<path d="M 90.7180,120.0000 A 80.0000,80.0000 0 0,1 103.4315,103.4315" />
<path d="M 103.4315,103.4315 A 80.0000,80.0000 0 0,1 120.0000,90.7180" />
<path d="M 120.0000,90.7180 L 110.0000,73.3975" stroke="#000000" stroke-width="4" stroke-opacity="1.0" />
<path d="M 139.2945,82.7259 L 134.1181,63.4074" stroke="#000000" stroke-width="4" stroke-opacity="1.0" />
<path d="M 160.0000,80.0000 L 160.0000,60.0000" stroke="#000000" stroke-width="4" stroke-opacity="1.0" />
<path d="M 160.0000,80.0000 A 80.0000,80.0000 0 0,1 180.7055,82.7259" />
<path d="M 180.7055,82.7259 L 185.8819,63.4074" stroke="#000000" stroke-width="4" stroke-opacity="1.0" />
<path d="M 200.0000,90.7180 L 210.0000,73.3975" stroke="#000000" stroke-width="4" stroke-opacity="1.0" />
<path d="M 216.5685,103.4315 L 230.7107,89.2893" stroke="#000000" stroke-width="4" stroke-opacity="1.0" />
<path d="M 216.5685,103.4315 A 80.0000,80.0000 0 0,1 229.2820,120.0000" />
<path d="M 256.5926,185.8819 A 100.0000,100.0000 0 0,1 246.6025,210.0000" />
<path d="M 230.7107,230.7107 L 244.8528,244.8528" stroke="#000000" stroke-width="4" stroke-opacity="1.0" />
<path d="M 210.0000,246.6025 L 220.0000,263.9230" stroke="#000000" stroke-width="4" stroke-opacity="1.0" />
<path d="M 210.0000,246.6025 A 100.0000,100.0000 0 0,1 185.8819,256.5926" />
<path d="M 185.8819,256.5926 A 100.0000,100.0000 0 0,1 160.0000,260.0000" />
<path d="M 160.0000,260.0000 L 160.0000,280.0000" stroke="#000000" stroke-width="4" stroke-opacity="1.0" />
<path d="M 134.1181,256.5926 A 100.0000,100.0000 0 0,1 110.0000,246.6025" />
<path d="M 110.0000,246.6025 L 100.0000,263.9230" stroke="#000000" stroke-width="4" stroke-opacity="1.0" />
<path d="M 73.3975,210.0000 A 100.0000,100.0000 0 0,1 63.4074,185.8819" />
<path d="M 63.4074,185.8819 L 44.0889,191.0583" stroke="#000000" stroke-width="4" stroke-opacity="1.0" />
<path d="M 63.4074,185.8819 A 100.0000,100.0000 0 0,1 60.0000,160.0000" />
<path d="M 63.4074,134.1181 A 100.0000,100.0000 0 0,1 73.3975,110.0000" />
<path d="M 73.3975,110.0000 A 100.0000,100.0000 0 0,1 89.2893,89.2893" />
<path d="M 89.2893,89.2893 A 100.0000,100.0000 0 0,1 110.0000,73.3975" />
<path d="M 110.0000,73.3975 A 100.0000,100.0000 0 0,1 134.1181,63.4074" />
<path d="M 160.0000,60.0000 L 160.0000,40.0000" stroke="#000000" stroke-width="4" stroke-opacity="1.0" />
<path d="M 230.7107,89.2893 L 244.8528,75.1472" stroke="#000000" stroke-width="4" stroke-opacity="1.0" />
<path d="M 230.7107,89.2893 A 100.0000,100.0000 0 0,1 246.6025,110.0000" />
<path d="M 246.6025,110.0000 L 263.9230,100.0000" stroke="#000000" stroke-width="4" stroke-opacity="1.0" />
<path d="M 246.6025,110.0000 A 100.0000,100.0000 0 0,1 256.5926,134.1181" />
<path d="M 256.5926,134.1181 L 275.9111,128.9417" stroke="#000000" stroke-width="4" stroke-opacity="1.0" />
<path d="M 260.0000,160.0000 L 280.0000,160.0000" stroke="#000000" stroke-width="4" stroke-opacity="1.0" />
<path d="M 280.0000,160.0000 A 120.0000,120.0000 0 0,1 275.9111,191.0583" />
<path d="M 300.0000,160.0000 A 140.0000,140.0000 0 0,1 295.2296,196.2347" />
<path d="M 295.2296,196.2347 A 140.0000,140.0000 0 0,1 281.2436,230.0000" />
<path d="M 263.9230,220.0000 L 281.2436,230.0000" stroke="#000000" stroke-width="4" stroke-opacity="1.0" />
<path d="M 281.2436,230.0000 A 140.0000,140.0000 0 0,1 258.9949,258.9949" />
<path d="M 258.9949,258.9949 A 140.0000,140.0000 0 0,1 230.0000,281.2436" />
<path d="M 230.0000,281.2436 A 140.0000,140.0000 0 0,1 196.2347,295.2296" />
<path d="M 191.0583,275.9111 L 196.2347,295.2296" stroke="#000000" stroke-width="4" stroke-opacity="1.0" />
<path d="M 196.2347,295.2296 A 140.0000,140.0000 0 0,1 160.0000,300.0000" />
<path d="M 160.0000,280.0000 L 160.0000,300.0000" stroke="#000000" stroke-width="4" stroke-opacity="1.0" />
<path d="M 160.0000,300.0000 A 140.0000,140.0000 0 0,1 123.7653,295.2296" />
<path d="M 128.9417,275.9111 L 123.7653,295.2296" stroke="#000000" stroke-width="4" stroke-opacity="1.0" />
<path d="M 100.0000,263.9230 L 90.0000,281.2436" stroke="#000000" stroke-width="4" stroke-opacity="1.0" />
<path d="M 90.0000,281.2436 A 140.0000,140.0000 0 0,1 61.0051,258.9949" />
<path d="M 75.1472,244.8528 L 61.0051,258.9949" stroke="#000000" stroke-width="4" stroke-opacity="1.0" />
<path d="M 61.0051,258.9949 A 140.0000,140.0000 0 0,1 38.7564,230.0000" />
<path d="M 56.0770,220.0000 A 120.0000,120.0000 0 0,1 44.0889,191.0583" />
<path d="M 38.7564,230.0000 A 140.0000,140.0000 0 0,1 24.7704,196.2347" />
<path d="M 44.0889,191.0583 L 24.7704,196.2347" stroke="#000000" stroke-width="4" stroke-opacity="1.0" />
<path d="M 24.7704,196.2347 A 140.0000,140.0000 0 0,1 20.0000,160.0000" />
<path d="M 40.0000,160.0000 L 20.0000,160.0000" stroke="#000000" stroke-width="4" stroke-opacity="1.0" />
<path d="M 20.0000,160.0000 A 140.0000,140.0000 0 0,1 24.7704,123.7653" />
<path d="M 44.0889,128.9417 L 24.7704,123.7653" stroke="#000000" stroke-width="4" stroke-opacity="1.0" />
<path d="M 24.7704,123.7653 A 140.0000,140.0000 0 0,1 38.7564,90.0000" />
<path d="M 56.0770,100.0000 A 120.0000,120.0000 0 0,1 75.1472,75.1472" />
<path d="M 38.7564,90.0000 A 140.0000,140.0000 0 0,1 61.0051,61.0051" />
<path d="M 75.1472,75.1472 A 120.0000,120.0000 0 0,1 100.0000,56.0770" />
<path d="M 61.0051,61.0051 A 140.0000,140.0000 0 0,1 90.0000,38.7564" />
<path d="M 100.0000,56.0770 L 90.0000,38.7564" stroke="#000000" stroke-width="4" stroke-opacity="1.0" />
<path d="M 90.0000,38.7564 A 140.0000,140.0000 0 0,1 123.7653,24.7704" />
<path d="M 128.9417,44.0889 L 123.7653,24.7704" stroke="#000000" stroke-width="4" stroke-opacity="1.0" />
<path d="M 128.9417,44.0889 A 120.0000,120.0000 0 0,1 160.0000,40.0000" />
<path d="M 123.7653,24.7704 A 140.0000,140.0000 0 0,1 160.0000,20.0000" />
<path d="M 160.0000,40.0000 A 120.0000,120.0000 0 0,1 191.0583,44.0889" />
<path d="M 160.0000,20.0000 A 140.0000,140.0000 0 0,1 196.2347,24.7704" />
<path d="M 196.2347,24.7704 A 140.0000,140.0000 0 0,1 230.0000,38.7564" />
<path d="M 220.0000,56.0770 A 120.0000,120.0000 0 0,1 244.8528,75.1472" />
<path d="M 230.0000,38.7564 A 140.0000,140.0000 0 0,1 258.9949,61.0051" />
<path d="M 258.9949,61.0051 A 140.0000,140.0000 0 0,1 281.2436,90.0000" />
<path d="M 281.2436,90.0000 A 140.0000,140.0000 0 0,1 295.2296,123.7653" />
<path d="M 275.9111,128.9417 A 120.0000,120.0000 0 0,1 280.0000,160.0000" />
<path d="M 295.2296,123.7653 A 140.0000,140.0000 0 0,1 300.0000,160.0000" />
</g>
</svg>