<?xml version="1.0" standalone="no"?>
<!-- Copyright (c) DY INTERACTIVE. Tüm hakları saklıdır. Ticari kullanım yasal sorumluluk doğurur. -->
<!DOCTYPE svg PUBLIC "-//W3C//DTD SVG 1.1//EN" "http://www.w3.org/Graphics/SVG/1.1/DTD/svg11.dtd">
<svg width="440" height="440" version="1.1" xmlns="http://www.w3.org/2000/svg">
<g fill="none" stroke="#000000" stroke-width="4" stroke-linecap="round" stroke-linejoin="round">
<path d="M 240.0000,220.0000 A 20.0000,20.0000 0 0,1 239.6962,223.4730" />
<path d="M 239.6962,223.4730 A 20.0000,20.0000 0 0,1 238.7939,226.8404" />
<path d="M 238.7939,226.8404 A 20.0000,20.0000 0 0,1 237.3205,230.0000" />
<path d="M 237.3205,230.0000 A 20.0000,20.0000 0 0,1 235.3209,232.8558" />
<path d="M 235.3209,232.8558 A 20.0000,20.0000 0 0,1 232.8558,235.3209" />
<path d="M 232.8558,235.3209 A 20.0000,20.0000 0 0,1 230.0000,237.3205" />
<path d="M 230.0000,237.3205 A 20.0000,20.0000 0 0,1 226.8404,238.7939" />
<path d="M 226.8404,238.7939 A 20.0000,20.0000 0 0,1 223.4730,239.6962" />
<path d="M 223.4730,239.6962 A 20.0000,20.0000 0 0,1 220.0000,240.0000" />
<path d="M 220.0000,240.0000 A 20.0000,20.0000 0 0,1 216.5270,239.6962" />
<path d="M 216.5270,239.6962 A 20.0000,20.0000 0 0,1 213.1596,238.7939" />
<path d="M 213.1596,238.7939 A 20.0000,20.0000 0 0,1 210.0000,237.3205" />
<path d="M 210.0000,237.3205 A 20.0000,20.0000 0 0,1 207.1442,235.3209" />
<path d="M 207.1442,235.3209 A 20.0000,20.0000 0 0,1 204.6791,232.8558" />
<path d="M 204.6791,232.8558 A 20.0000,20.0000 0 0,1 202.6795,230.0000" />
<path d="M 202.6795,230.0000 A 20.0000,20.0000 0 0,1 201.2061,226.8404" />
<path d="M 201.2061,226.8404 A 20.0000,20.0000 0 0,1 200.3038,223.4730" />
<path d="M 200.3038,223.4730 A 20.0000,20.0000 0 0,1 200.0000,220.0000" />
<path d="M 200.0000,220.0000 A 20.0000,20.0000 0 0,1 200.3038,216.5270" />
<path d="M 200.3038,216.5270 L 180.6077,213.0541" stroke="#000000" stroke-width="4" stroke-opacity="1.0" />
<path d="M 210.0000,202.6795 L 200.0000,185.3590" stroke="#000000" stroke-width="4" stroke-opacity="1.0" />
<path d="M 210.0000,202.6795 A 20.0000,20.0000 0 0,1 213.1596,201.2061" />
<path d="M 213.1596,201.2061 A 20.0000,20.0000 0 0,1 216.5270,200.3038" />
<path d="M 216.5270,200.3038 A 20.0000,20.0000 0 0,1 220.0000,200.0000" />
<path d="M 220.0000,200.0000 A 20.0000,20.0000 0 0,1 223.4730,200.3038" />
<path d="M 223.4730,200.3038 A 20.0000,20.0000 0 0,1 226.8404,201.2061" />
<path d="M 226.8404,201.2061 A 20.0000,20.0000 0 0,1 230.0000,202.6795" />
<path d="M 230.0000,202.6795 A 20.0000,20.0000 0 0,1 232.8558,204.6791" />
<path d="M 232.8558,204.6791 L 245.7115,189.3582" stroke="#000000" stroke-width="4" stroke-opacity="1.0" />
<path d="M 240.0000,220.0000 L 260.0000,220.0000" stroke="#000000" stroke-width="4" stroke-opacity="1.0" />
<path d="M 260.0000,220.0000 A 40.0000,40.0000 0 0,1 259.3923,226.9459" />
<path d="M 259.3923,226.9459 A 40.0000,40.0000 0 0,1 257.5877,233.6808" />
<path d="M 257.5877,233.6808 L 276.3816,240.5212" stroke="#000000" stroke-width="4" stroke-opacity="1.0" />
<path d="M 257.5877,233.6808 A 40.0000,40.0000 0 0,1 254.6410,240.0000" />
<path d="M 254.6410,240.0000 A 40.0000,40.0000 0 0,1 250.6418,245.7115" />
<path d="M 250.6418,245.7115 L 265.9627,258.5673" stroke="#000000" stroke-width="4" stroke-opacity="1.0" />
<path d="M 250.6418,245.7115 A 40.0000,40.0000 0 0,1 245.7115,250.6418" />
<path d="M 245.7115,250.6418 A 40.0000,40.0000 0 0,1 240.0000,254.6410" />
<path d="M 240.0000,254.6410 L 250.0000,271.9615" stroke="#000000" stroke-width="4" stroke-opacity="1.0" />
<path d="M 240.0000,254.6410 A 40.0000,40.0000 0 0,1 233.6808,257.5877" />
<path d="M 233.6808,257.5877 A 40.0000,40.0000 0 0,1 226.9459,259.3923" />
<path d="M 226.9459,259.3923 A 40.0000,40.0000 0 0,1 220.0000,260.0000" />
<path d="M 220.0000,260.0000 A 40.0000,40.0000 0 0,1 213.0541,259.3923" />
<path d="M 213.0541,259.3923 A 40.0000,40.0000 0 0,1 206.3192,257.5877" />
<path d="M 206.3192,257.5877 A 40.0000,40.0000 0 0,1 200.0000,254.6410" />
<path d="M 200.0000,254.6410 A 40.0000,40.0000 0 0,1 194.2885,250.6418" />
<path d="M 194.2885,250.6418 L 181.4327,265.9627" stroke="#000000" stroke-width="4" stroke-opacity="1.0" />
<path d="M 194.2885,250.6418 A 40.0000,40.0000 0 0,1 189.3582,245.7115" />
<path d="M 180.6077,226.9459 L 160.9115,230.4189" stroke="#000000" stroke-width="4" stroke-opacity="1.0" />
<path d="M 180.6077,226.9459 A 40.0000,40.0000 0 0,1 180.0000,220.0000" />
<path d="M 180.0000,220.0000 A 40.0000,40.0000 0 0,1 180.6077,213.0541" />
<path d="M 200.0000,185.3590 A 40.0000,40.0000 0 0,1 206.3192,182.4123" />
<path d="M 206.3192,182.4123 A 40.0000,40.0000 0 0,1 213.0541,180.6077" />
<path d="M 213.0541,180.6077 L 209.5811,160.9115" stroke="#000000" stroke-width="4" stroke-opacity="1.0" />
<path d="M 240.0000,185.3590 L 250.0000,168.0385" stroke="#000000" stroke-width="4" stroke-opacity="1.0" />
<path d="M 240.0000,185.3590 A 40.0000,40.0000 0 0,1 245.7115,189.3582" />
<path d="M 250.6418,194.2885 L 265.9627,181.4327" stroke="#000000" stroke-width="4" stroke-opacity="1.0" />
<path d="M 280.0000,220.0000 A 60.0000,60.0000 0 0,1 279.0885,230.4189" />
<path d="M 279.0885,230.4189 L 298.7846,233.8919" stroke="#000000" stroke-width="4" stroke-opacity="1.0" />
<path d="M 276.3816,240.5212 L 295.1754,247.3616" stroke="#000000" stroke-width="4" stroke-opacity="1.0" />
<path d="M 276.3816,240.5212 A 60.0000,60.0000 0 0,1 271.9615,250.0000" />
<path d="M 265.9627,258.5673 L 281.2836,271.4230" stroke="#000000" stroke-width="4" stroke-opacity="1.0" />
<path d="M 265.9627,258.5673 A 60.0000,60.0000 0 0,1 258.5673,265.9627" />
<path d="M 258.5673,265.9627 L 271.4230,281.2836" stroke="#000000" stroke-width="4" stroke-opacity="1.0" />
<path d="M 250.0000,271.9615 A 60.0000,60.0000 0 0,1 240.5212,276.3816" />
<path d="M 240.5212,276.3816 L 247.3616,295.1754" stroke="#000000" stroke-width="4" stroke-opacity="1.0" />
<path d="M 240.5212,276.3816 A 60.0000,60.0000 0 0,1 230.4189,279.0885" />
<path d="M 230.4189,279.0885 L 233.8919,298.7846" stroke="#000000" stroke-width="4" stroke-opacity="1.0" />
<path d="M 190.0000,271.9615 L 180.0000,289.2820" stroke="#000000" stroke-width="4" stroke-opacity="1.0" />
<path d="M 181.4327,265.9627 L 168.5770,281.2836" stroke="#000000" stroke-width="4" stroke-opacity="1.0" />
<path d="M 181.4327,265.9627 A 60.0000,60.0000 0 0,1 174.0373,258.5673" />
<path d="M 174.0373,258.5673 A 60.0000,60.0000 0 0,1 168.0385,250.0000" />
<path d="M 168.0385,250.0000 L 150.7180,260.0000" stroke="#000000" stroke-width="4" stroke-opacity="1.0" />
<path d="M 160.9115,230.4189 L 141.2154,233.8919" stroke="#000000" stroke-width="4" stroke-opacity="1.0" />
<path d="M 160.9115,230.4189 A 60.0000,60.0000 0 0,1 160.0000,220.0000" />
<path d="M 160.0000,220.0000 A 60.0000,60.0000 0 0,1 160.9115,209.5811" />
<path d="M 160.9115,209.5811 A 60.0000,60.0000 0 0,1 163.6184,199.4788" />
<path d="M 163.6184,199.4788 A 60.0000,60.0000 0 0,1 168.0385,190.0000" />
<path d="M 181.4327,174.0373 A 60.0000,60.0000 0 0,1 190.0000,168.0385" />
<path d="M 190.0000,168.0385 L 180.0000,150.7180" stroke="#000000" stroke-width="4" stroke-opacity="1.0" />
<path d="M 209.5811,160.9115 L 206.1081,141.2154" stroke="#000000" stroke-width="4" stroke-opacity="1.0" />
<path d="M 220.0000,160.0000 A 60.0000,60.0000 0 0,1 230.4189,160.9115" />
<path d="M 230.4189,160.9115 L 233.8919,141.2154" stroke="#000000" stroke-width="4" stroke-opacity="1.0" />
<path d="M 240.5212,163.6184 L 247.3616,144.8246" stroke="#000000" stroke-width="4" stroke-opacity="1.0" />
<path d="M 250.0000,168.0385 L 260.0000,150.7180" stroke="#000000" stroke-width="4" stroke-opacity="1.0" />
<path d="M 258.5673,174.0373 A 60.0000,60.0000 0 0,1 265.9627,181.4327" />
<path d="M 265.9627,181.4327 L 281.2836,168.5770" stroke="#000000" stroke-width="4" stroke-opacity="1.0" />
<path d="M 276.3816,199.4788 L 295.1754,192.6384" stroke="#000000" stroke-width="4" stroke-opacity="1.0" />
<path d="M 276.3816,199.4788 A 60.0000,60.0000 0 0,1 279.0885,209.5811" />
<path d="M 279.0885,209.5811 L 298.7846,206.1081" stroke="#000000" stroke-width="4" stroke-opacity="1.0" />
<path d="M 280.0000,220.0000 L 300.0000,220.0000" stroke="#000000" stroke-width="4" stroke-opacity="1.0" />
<path d="M 298.7846,233.8919 A 80.0000,80.0000 0 0,1 295.1754,247.3616" />
<path d="M 289.2820,260.0000 A 80.0000,80.0000 0 0,1 281.2836,271.4230" />
<path d="M 281.2836,271.4230 L 296.6044,284.2788" stroke="#000000" stroke-width="4" stroke-opacity="1.0" />
<path d="M 271.4230,281.2836 A 80.0000,80.0000 0 0,1 260.0000,289.2820" />
<path d="M 260.0000,289.2820 L 270.0000,306.6025" stroke="#000000" stroke-width="4" stroke-opacity="1.0" />
<path d="M 233.8919,298.7846 A 80.0000,80.0000 0 0,1 220.0000,300.0000" />
<path d="M 206.1081,298.7846 A 80.0000,80.0000 0 0,1 192.6384,295.1754" />
<path d="M 192.6384,295.1754 L 185.7980,313.9693" stroke="#000000" stroke-width="4" stroke-opacity="1.0" />
<path d="M 192.6384,295.1754 A 80.0000,80.0000 0 0,1 180.0000,289.2820" />
<path d="M 180.0000,289.2820 L 170.0000,306.6025" stroke="#000000" stroke-width="4" stroke-opacity="1.0" />
<path d="M 150.7180,260.0000 L 133.3975,270.0000" stroke="#000000" stroke-width="4" stroke-opacity="1.0" />
<path d="M 141.2154,206.1081 L 121.5192,202.6352" stroke="#000000" stroke-width="4" stroke-opacity="1.0" />
<path d="M 141.2154,206.1081 A 80.0000,80.0000 0 0,1 144.8246,192.6384" />
<path d="M 144.8246,192.6384 A 80.0000,80.0000 0 0,1 150.7180,180.0000" />
<path d="M 150.7180,180.0000 A 80.0000,80.0000 0 0,1 158.7164,168.5770" />
<path d="M 158.7164,168.5770 A 80.0000,80.0000 0 0,1 168.5770,158.7164" />
<path d="M 168.5770,158.7164 L 155.7212,143.3956" stroke="#000000" stroke-width="4" stroke-opacity="1.0" />
<path d="M 168.5770,158.7164 A 80.0000,80.0000 0 0,1 180.0000,150.7180" />
<path d="M 192.6384,144.8246 A 80.0000,80.0000 0 0,1 206.1081,141.2154" />
<path d="M 206.1081,141.2154 L 202.6352,121.5192" stroke="#000000" stroke-width="4" stroke-opacity="1.0" />
<path d="M 220.0000,140.0000 L 220.0000,120.0000" stroke="#000000" stroke-width="4" stroke-opacity="1.0" />
<path d="M 220.0000,140.0000 A 80.0000,80.0000 0 0,1 233.8919,141.2154" />
<path d="M 233.8919,141.2154 L 237.3648,121.5192" stroke="#000000" stroke-width="4" stroke-opacity="1.0" />
<path d="M 247.3616,144.8246 A 80.0000,80.0000 0 0,1 260.0000,150.7180" />
<path d="M 271.4230,158.7164 A 80.0000,80.0000 0 0,1 281.2836,168.5770" />
<path d="M 298.7846,206.1081 A 80.0000,80.0000 0 0,1 300.0000,220.0000" />
<path d="M 318.4808,237.3648 L 338.1769,240.8378" stroke="#000000" stroke-width="4" stroke-opacity="1.0" />
<path d="M 313.9693,254.2020 A 100.0000,100.0000 0 0,1 306.6025,270.0000" />
<path d="M 306.6025,270.0000 L 323.9230,280.0000" stroke="#000000" stroke-width="4" stroke-opacity="1.0" />
<path d="M 306.6025,270.0000 A 100.0000,100.0000 0 0,1 296.6044,284.2788" />
<path d="M 284.2788,296.6044 A 100.0000,100.0000 0 0,1 270.0000,306.6025" />
<path d="M 270.0000,306.6025 L 280.0000,323.9230" stroke="#000000" stroke-width="4" stroke-opacity="1.0" />
<path d="M 270.0000,306.6025 A 100.0000,100.0000 0 0,1 254.2020,313.9693" />
<path d="M 254.2020,313.9693 L 261.0424,332.7631" stroke="#000000" stroke-width="4" stroke-opacity="1.0" />
<path d="M 254.2020,313.9693 A 100.0000,100.0000 0 0,1 237.3648,318.4808" />
<path d="M 220.0000,320.0000 L 220.0000,340.0000" stroke="#000000" stroke-width="4" stroke-opacity="1.0" />
<path d="M 220.0000,320.0000 A 100.0000,100.0000 0 0,1 202.6352,318.4808" />
<path d="M 202.6352,318.4808 L 199.1622,338.1769" stroke="#000000" stroke-width="4" stroke-opacity="1.0" />
<path d="M 170.0000,306.6025 L 160.0000,323.9230" stroke="#000000" stroke-width="4" stroke-opacity="1.0" />
<path d="M 155.7212,296.6044 L 142.8655,311.9253" stroke="#000000" stroke-width="4" stroke-opacity="1.0" />
<path d="M 143.3956,284.2788 L 128.0747,297.1345" stroke="#000000" stroke-width="4" stroke-opacity="1.0" />
<path d="M 143.3956,284.2788 A 100.0000,100.0000 0 0,1 133.3975,270.0000" />
<path d="M 133.3975,270.0000 L 116.0770,280.0000" stroke="#000000" stroke-width="4" stroke-opacity="1.0" />
<path d="M 133.3975,270.0000 A 100.0000,100.0000 0 0,1 126.0307,254.2020" />
<path d="M 126.0307,254.2020 A 100.0000,100.0000 0 0,1 121.5192,237.3648" />
<path d="M 121.5192,237.3648 L 101.8231,240.8378" stroke="#000000" stroke-width="4" stroke-opacity="1.0" />
<path d="M 120.0000,220.0000 L 100.0000,220.0000" stroke="#000000" stroke-width="4" stroke-opacity="1.0" />
<path d="M 121.5192,202.6352 A 100.0000,100.0000 0 0,1 126.0307,185.7980" />
<path d="M 126.0307,185.7980 A 100.0000,100.0000 0 0,1 133.3975,170.0000" />
<path d="M 133.3975,170.0000 A 100.0000,100.0000 0 0,1 143.3956,155.7212" />
<path d="M 143.3956,155.7212 L 128.0747,142.8655" stroke="#000000" stroke-width="4" stroke-opacity="1.0" />
<path d="M 143.3956,155.7212 A 100.0000,100.0000 0 0,1 155.7212,143.3956" />
<path d="M 155.7212,143.3956 A 100.0000,100.0000 0 0,1 170.0000,133.3975" />
<path d="M 170.0000,133.3975 L 160.0000,116.0770" stroke="#000000" stroke-width="4" stroke-opacity="1.0" />
<path d="M 185.7980,126.0307 L 178.9576,107.2369" stroke="#000000" stroke-width="4" stroke-opacity="1.0" />
<path d="M 185.7980,126.0307 A 100.0000,100.0000 0 0,1 202.6352,121.5192" />
<path d="M 220.0000,120.0000 L 220.0000,100.0000" stroke="#000000" stroke-width="4" stroke-opacity="1.0" />
<path d="M 237.3648,121.5192 A 100.0000,100.0000 0 0,1 254.2020,126.0307" />
<path d="M 254.2020,126.0307 A 100.0000,100.0000 0 0,1 270.0000,133.3975" />
<path d="M 270.0000,133.3975 L 280.0000,116.0770" stroke="#000000" stroke-width="4" stroke-opacity="1.0" />
<path d="M 284.2788,143.3956 A 100.0000,100.0000 0 0,1 296.6044,155.7212" />
<path d="M 296.6044,155.7212 L 311.9253,142.8655" stroke="#000000" stroke-width="4" stroke-opacity="1.0" />
<path d="M 306.6025,170.0000 L 323.9230,160.0000" stroke="#000000" stroke-width="4" stroke-opacity="1.0" />
<path d="M 313.9693,185.7980 L 332.7631,178.9576" stroke="#000000" stroke-width="4" stroke-opacity="1.0" />
<path d="M 313.9693,185.7980 A 100.0000,100.0000 0 0,1 318.4808,202.6352" />
<path d="M 318.4808,202.6352 L 338.1769,199.1622" stroke="#000000" stroke-width="4" stroke-opacity="1.0" />
<path d="M 318.4808,202.6352 A 100.0000,100.0000 0 0,1 320.0000,220.0000" />
<path d="M 320.0000,220.0000 L 340.0000,220.0000" stroke="#000000" stroke-width="4" stroke-opacity="1.0" />
<path d="M 340.0000,220.0000 A 120.0000,120.0000 0 0,1 338.1769,240.8378" />
<path d="M 338.1769,240.8378 L 357.8731,244.3107" stroke="#000000" stroke-width="4" stroke-opacity="1.0" />
<path d="M 338.1769,240.8378 A 120.0000,120.0000 0 0,1 332.7631,261.0424" />
<path d="M 332.7631,261.0424 A 120.0000,120.0000 0 0,1 323.9230,280.0000" />
<path d="M 311.9253,297.1345 A 120.0000,120.0000 0 0,1 297.1345,311.9253" />
<path d="M 297.1345,311.9253 A 120.0000,120.0000 0 0,1 280.0000,323.9230" />
<path d="M 280.0000,323.9230 L 290.0000,341.2436" stroke="#000000" stroke-width="4" stroke-opacity="1.0" />
<path d="M 240.8378,338.1769 L 244.3107,357.8731" stroke="#000000" stroke-width="4" stroke-opacity="1.0" />
<path d="M 220.0000,340.0000 L 220.0000,360.0000" stroke="#000000" stroke-width="4" stroke-opacity="1.0" />
<path d="M 199.1622,338.1769 A 120.0000,120.0000 0 0,1 178.9576,332.7631" />
<path d="M 160.0000,323.9230 A 120.0000,120.0000 0 0,1 142.8655,311.9253" />
<path d="M 128.0747,297.1345 L 112.7538,309.9903" stroke="#000000" stroke-width="4" stroke-opacity="1.0" />
<path d="M 116.0770,280.0000 L 98.7564,290.0000" stroke="#000000" stroke-width="4" stroke-opacity="1.0" />
<path d="M 116.0770,280.0000 A 120.0000,120.0000 0 0,1 107.2369,261.0424" />
<path d="M 101.8231,240.8378 A 120.0000,120.0000 0 0,1 100.0000,220.0000" />
<path d="M 101.8231,199.1622 A 120.0000,120.0000 0 0,1 107.2369,178.9576" />
<path d="M 107.2369,178.9576 L 88.4430,172.1172" stroke="#000000" stroke-width="4" stroke-opacity="1.0" />
<path d="M 107.2369,178.9576 A 120.0000,120.0000 0 0,1 116.0770,160.0000" />
<path d="M 128.0747,142.8655 L 112.7538,130.0097" stroke="#000000" stroke-width="4" stroke-opacity="1.0" />
<path d="M 142.8655,128.0747 L 130.0097,112.7538" stroke="#000000" stroke-width="4" stroke-opacity="1.0" />
<path d="M 142.8655,128.0747 A 120.0000,120.0000 0 0,1 160.0000,116.0770" />
<path d="M 160.0000,116.0770 L 150.0000,98.7564" stroke="#000000" stroke-width="4" stroke-opacity="1.0" />
<path d="M 199.1622,101.8231 L 195.6893,82.1269" stroke="#000000" stroke-width="4" stroke-opacity="1.0" />
<path d="M 199.1622,101.8231 A 120.0000,120.0000 0 0,1 220.0000,100.0000" />
<path d="M 240.8378,101.8231 L 244.3107,82.1269" stroke="#000000" stroke-width="4" stroke-opacity="1.0" />
<path d="M 240.8378,101.8231 A 120.0000,120.0000 0 0,1 261.0424,107.2369" />
<path d="M 261.0424,107.2369 A 120.0000,120.0000 0 0,1 280.0000,116.0770" />
<path d="M 280.0000,116.0770 L 290.0000,98.7564" stroke="#000000" stroke-width="4" stroke-opacity="1.0" />
<path d="M 297.1345,128.0747 L 309.9903,112.7538" stroke="#000000" stroke-width="4" stroke-opacity="1.0" />
<path d="M 297.1345,128.0747 A 120.0000,120.0000 0 0,1 311.9253,142.8655" />
<path d="M 311.9253,142.8655 L 327.2462,130.0097" stroke="#000000" stroke-width="4" stroke-opacity="1.0" />
<path d="M 323.9230,160.0000 A 120.0000,120.0000 0 0,1 332.7631,178.9576" />
<path d="M 338.1769,199.1622 L 357.8731,195.6893" stroke="#000000" stroke-width="4" stroke-opacity="1.0" />
<path d="M 357.8731,244.3107 L 377.5692,247.7837" stroke="#000000" stroke-width="4" stroke-opacity="1.0" />
<path d="M 351.5570,267.8828 L 370.3508,274.7232" stroke="#000000" stroke-width="4" stroke-opacity="1.0" />
<path d="M 341.2436,290.0000 A 140.0000,140.0000 0 0,1 327.2462,309.9903" />
<path d="M 327.2462,309.9903 L 342.5671,322.8460" stroke="#000000" stroke-width="4" stroke-opacity="1.0" />
<path d="M 327.2462,309.9903 A 140.0000,140.0000 0 0,1 309.9903,327.2462" />
<path d="M 309.9903,327.2462 L 322.8460,342.5671" stroke="#000000" stroke-width="4" stroke-opacity="1.0" />
<path d="M 309.9903,327.2462 A 140.0000,140.0000 0 0,1 290.0000,341.2436" />
<path d="M 290.0000,341.2436 A 140.0000,140.0000 0 0,1 267.8828,351.5570" />
<path d="M 267.8828,351.5570 L 274.7232,370.3508" stroke="#000000" stroke-width="4" stroke-opacity="1.0" />
<path d="M 267.8828,351.5570 A 140.0000,140.0000 0 0,1 244.3107,357.8731" />
<path d="M 244.3107,357.8731 L 247.7837,377.5692" stroke="#000000" stroke-width="4" stroke-opacity="1.0" />
<path d="M 244.3107,357.8731 A 140.0000,140.0000 0 0,1 220.0000,360.0000" />
<path d="M 220.0000,360.0000 A 140.0000,140.0000 0 0,1 195.6893,357.8731" />
<path d="M 195.6893,357.8731 A 140.0000,140.0000 0 0,1 172.1172,351.5570" />
<path d="M 172.1172,351.5570 A 140.0000,140.0000 0 0,1 150.0000,341.2436" />
<path d="M 150.0000,341.2436 A 140.0000,140.0000 0 0,1 130.0097,327.2462" />
<path d="M 98.7564,290.0000 A 140.0000,140.0000 0 0,1 88.4430,267.8828" />
<path d="M 88.4430,267.8828 A 140.0000,140.0000 0 0,1 82.1269,244.3107" />
<path d="M 82.1269,244.3107 L 62.4308,247.7837" stroke="#000000" stroke-width="4" stroke-opacity="1.0" />
<path d="M 80.0000,220.0000 L 60.0000,220.0000" stroke="#000000" stroke-width="4" stroke-opacity="1.0" />
<path d="M 80.0000,220.0000 A 140.0000,140.0000 0 0,1 82.1269,195.6893" />
<path d="M 82.1269,195.6893 L 62.4308,192.2163" stroke="#000000" stroke-width="4" stroke-opacity="1.0" />
<path d="M 88.4430,172.1172 L 69.6492,165.2768" stroke="#000000" stroke-width="4" stroke-opacity="1.0" />
<path d="M 88.4430,172.1172 A 140.0000,140.0000 0 0,1 98.7564,150.0000" />
<path d="M 98.7564,150.0000 L 81.4359,140.0000" stroke="#000000" stroke-width="4" stroke-opacity="1.0" />
<path d="M 150.0000,98.7564 L 140.0000,81.4359" stroke="#000000" stroke-width="4" stroke-opacity="1.0" />
<path d="M 172.1172,88.4430 A 140.0000,140.0000 0 0,1 195.6893,82.1269" />
<path d="M 195.6893,82.1269 A 140.0000,140.0000 0 0,1 220.0000,80.0000" />
<path d="M 220.0000,80.0000 L 220.0000,60.0000" stroke="#000000" stroke-width="4" stroke-opacity="1.0" />
<path d="M 244.3107,82.1269 L 247.7837,62.4308" stroke="#000000" stroke-width="4" stroke-opacity="1.0" />
<path d="M 244.3107,82.1269 A 140.0000,140.0000 0 0,1 267.8828,88.4430" />
<path d="M 267.8828,88.4430 L 274.7232,69.6492" stroke="#000000" stroke-width="4" stroke-opacity="1.0" />
<path d="M 290.0000,98.7564 A 140.0000,140.0000 0 0,1 309.9903,112.7538" />
<path d="M 327.2462,130.0097 A 140.0000,140.0000 0 0,1 341.2436,150.0000" />
<path d="M 341.2436,150.0000 L 358.5641,140.0000" stroke="#000000" stroke-width="4" stroke-opacity="1.0" />
<path d="M 351.5570,172.1172 L 370.3508,165.2768" stroke="#000000" stroke-width="4" stroke-opacity="1.0" />
<path d="M 357.8731,195.6893 A 140.0000,140.0000 0 0,1 360.0000,220.0000" />
<path d="M 380.0000,220.0000 A 160.0000,160.0000 0 0,1 377.5692,247.7837" />
<path d="M 377.5692,247.7837 L 397.2654,251.2567" stroke="#000000" stroke-width="4" stroke-opacity="1.0" />
<path d="M 370.3508,274.7232 L 389.1447,281.5636" stroke="#000000" stroke-width="4" stroke-opacity="1.0" />
<path d="M 370.3508,274.7232 A 160.0000,160.0000 0 0,1 358.5641,300.0000" />
<path d="M 358.5641,300.0000 A 160.0000,160.0000 0 0,1 342.5671,322.8460" />
<path d="M 322.8460,342.5671 L 335.7018,357.8880" stroke="#000000" stroke-width="4" stroke-opacity="1.0" />
<path d="M 322.8460,342.5671 A 160.0000,160.0000 0 0,1 300.0000,358.5641" />
<path d="M 247.7837,377.5692 A 160.0000,160.0000 0 0,1 220.0000,380.0000" />
<path d="M 220.0000,380.0000 A 160.0000,160.0000 0 0,1 192.2163,377.5692" />
<path d="M 192.2163,377.5692 A 160.0000,160.0000 0 0,1 165.2768,370.3508" />
<path d="M 165.2768,370.3508 A 160.0000,160.0000 0 0,1 140.0000,358.5641" />
<path d="M 140.0000,358.5641 A 160.0000,160.0000 0 0,1 117.1540,342.5671" />
<path d="M 117.1540,342.5671 A 160.0000,160.0000 0 0,1 97.4329,322.8460" />
<path d="M 97.4329,322.8460 A 160.0000,160.0000 0 0,1 81.4359,300.0000" />
<path d="M 69.6492,274.7232 A 160.0000,160.0000 0 0,1 62.4308,247.7837" />
<path d="M 60.0000,220.0000 L 40.0000,220.0000" stroke="#000000" stroke-width="4" stroke-opacity="1.0" />
<path d="M 62.4308,192.2163 A 160.0000,160.0000 0 0,1 69.6492,165.2768" />
<path d="M 81.4359,140.0000 A 160.0000,160.0000 0 0,1 97.4329,117.1540" />
<path d="M 97.4329,117.1540 L 82.1120,104.2982" stroke="#000000" stroke-width="4" stroke-opacity="1.0" />
<path d="M 117.1540,97.4329 L 104.2982,82.1120" stroke="#000000" stroke-width="4" stroke-opacity="1.0" />
<path d="M 117.1540,97.4329 A 160.0000,160.0000 0 0,1 140.0000,81.4359" />
<path d="M 140.0000,81.4359 L 130.0000,64.1154" stroke="#000000" stroke-width="4" stroke-opacity="1.0" />
<path d="M 165.2768,69.6492 A 160.0000,160.0000 0 0,1 192.2163,62.4308" />
<path d="M 192.2163,62.4308 A 160.0000,160.0000 0 0,1 220.0000,60.0000" />
<path d="M 220.0000,60.0000 L 220.0000,40.0000" stroke="#000000" stroke-width="4" stroke-opacity="1.0" />
<path d="M 274.7232,69.6492 L 281.5636,50.8553" stroke="#000000" stroke-width="4" stroke-opacity="1.0" />
<path d="M 300.0000,81.4359 L 310.0000,64.1154" stroke="#000000" stroke-width="4" stroke-opacity="1.0" />
<path d="M 300.0000,81.4359 A 160.0000,160.0000 0 0,1 322.8460,97.4329" />
<path d="M 322.8460,97.4329 L 335.7018,82.1120" stroke="#000000" stroke-width="4" stroke-opacity="1.0" />
<path d="M 342.5671,117.1540 A 160.0000,160.0000 0 0,1 358.5641,140.0000" />
<path d="M 358.5641,140.0000 L 375.8846,130.0000" stroke="#000000" stroke-width="4" stroke-opacity="1.0" />
<path d="M 358.5641,140.0000 A 160.0000,160.0000 0 0,1 370.3508,165.2768" />
<path d="M 377.5692,192.2163 L 397.2654,188.7433" stroke="#000000" stroke-width="4" stroke-opacity="1.0" />
<path d="M 400.0000,220.0000 A 180.0000,180.0000 0 0,1 397.2654,251.2567" />
<path d="M 420.0000,220.0000 A 200.0000,200.0000 0 0,1 416.9616,254.7296" />
<path d="M 416.9616,254.7296 A 200.0000,200.0000 0 0,1 407.9385,288.4040" />
<path d="M 407.9385,288.4040 A 200.0000,200.0000 0 0,1 393.2051,320.0000" />
<path d="M 375.8846,310.0000 L 393.2051,320.0000" stroke="#000000" stroke-width="4" stroke-opacity="1.0" />
<path d="M 393.2051,320.0000 A 200.0000,200.0000 0 0,1 373.2089,348.5575" />
<path d="M 357.8880,335.7018 L 373.2089,348.5575" stroke="#000000" stroke-width="4" stroke-opacity="1.0" />
<path d="M 373.2089,348.5575 A 200.0000,200.0000 0 0,1 348.5575,373.2089" />
<path d="M 335.7018,357.8880 A 180.0000,180.0000 0 0,1 310.0000,375.8846" />
<path d="M 348.5575,373.2089 A 200.0000,200.0000 0 0,1 320.0000,393.2051" />
<path d="M 310.0000,375.8846 A 180.0000,180.0000 0 0,1 281.5636,389.1447" />
<path d="M 320.0000,393.2051 A 200.0000,200.0000 0 0,1 288.4040,407.9385" />
<path d="M 281.5636,389.1447 L 288.4040,407.9385" stroke="#000000" stroke-width="4" stroke-opacity="1.0" />
<path d="M 281.5636,389.1447 A 180.0000,180.0000 0 0,1 251.2567,397.2654" />
<path d="M 288.4040,407.9385 A 200.0000,200.0000 0 0,1 254.7296,416.9616" />
<path d="M 251.2567,397.2654 A 180.0000,180.0000 0 0,1 220.0000,400.0000" />
<path d="M 254.7296,416.9616 A 200.0000,200.0000 0 0,1 220.0000,420.0000" />
<path d="M 220.0000,420.0000 A 200.0000,200.0000 0 0,1 185.2704,416.9616" />
<path d="M 188.7433,397.2654 L 185.2704,416.9616" stroke="#000000" stroke-width="4" stroke-opacity="1.0" />
<path d="M 185.2704,416.9616 A 200.0000,200.0000 0 0,1 151.5960,407.9385" />
<path d="M 158.4364,389.1447 L 151.5960,407.9385" stroke="#000000" stroke-width="4" stroke-opacity="1.0" />
<path d="M 151.5960,407.9385 A 200.0000,200.0000 0 0,1 120.0000,393.2051" />
<path d="M 130.0000,375.8846 L 120.0000,393.2051" stroke="#000000" stroke-width="4" stroke-opacity="1.0" />
<path d="M 104.2982,357.8880 A 180.0000,180.0000 0 0,1 82.1120,335.7018" />
<path d="M 91.4425,373.2089 A 200.0000,200.0000 0 0,1 66.7911,348.5575" />
<path d="M 82.1120,335.7018 L 66.7911,348.5575" stroke="#000000" stroke-width="4" stroke-opacity="1.0" />
<path d="M 66.7911,348.5575 A 200.0000,200.0000 0 0,1 46.7949,320.0000" />
<path d="M 64.1154,310.0000 L 46.7949,320.0000" stroke="#000000" stroke-width="4" stroke-opacity="1.0" />
<path d="M 46.7949,320.0000 A 200.0000,200.0000 0 0,1 32.0615,288.4040" />
<path d="M 50.8553,281.5636 L 32.0615,288.4040" stroke="#000000" stroke-width="4" stroke-opacity="1.0" />
<path d="M 50.8553,281.5636 A 180.0000,180.0000 0 0,1 42.7346,251.2567" />
<path d="M 32.0615,288.4040 A 200.0000,200.0000 0 0,1 23.0384,254.7296" />
<path d="M 23.0384,254.7296 A 200.0000,200.0000 0 0,1 20.0000,220.0000" />
<path d="M 40.0000,220.0000 L 20.0000,220.0000" stroke="#000000" stroke-width="4" stroke-opacity="1.0" />
<path d="M 40.0000,220.0000 A 180.0000,180.0000 0 0,1 42.7346,188.7433" />
<path d="M 20.0000,220.0000 A 200.0000,200.0000 0 0,1 23.0384,185.2704" />
<path d="M 42.7346,188.7433 A 180.0000,180.0000 0 0,1 50.8553,158.4364" />
<path d="M 23.0384,185.2704 A 200.0000,200.0000 0 0,1 32.0615,151.5960" />
<path d="M 32.0615,151.5960 A 200.0000,200.0000 0 0,1 46.7949,120.0000" />
<path d="M 64.1154,130.0000 A 180.0000,180.0000 0 0,1 82.1120,104.2982" />
<path d="M 46.7949,120.0000 A 200.0000,200.0000 0 0,1 66.7911,91.4425" />
<path d="M 66.7911,91.4425 A 200.0000,200.0000 0 0,1 91.4425,66.7911" />
<path d="M 91.4425,66.7911 A 200.0000,200.0000 0 0,1 120.0000,46.7949" />
<path d="M 158.4364,50.8553 A 180.0000,180.0000 0 0,1 188.7433,42.7346" />
<path d="M 151.5960,32.0615 A 200.0000,200.0000 0 0,1 185.2704,23.0384" />
<path d="M 188.7433,42.7346 L 185.2704,23.0384" stroke="#000000" stroke-width="4" stroke-opacity="1.0" />
<path d="M 185.2704,23.0384 A 200.0000,200.0000 0 0,1 220.0000,20.0000" />
<path d="M 220.0000,20.0000 A 200.0000,200.0000 0 0,1 254.7296,23.0384" />
<path d="M 251.2567,42.7346 A 180.0000,180.0000 0 0,1 281.5636,50.8553" />
<path d="M 254.7296,23.0384 A 200.0000,200.0000 0 0,1 288.4040,32.0615" />
<path d="M 288.4040,32.0615 A 200.0000,200.0000 0 0,1 320.0000,46.7949" />
<path d="M 320.0000,46.7949 A 200.0000,200.0000 0 0,1 348.5575,66.7911" />
<path d="M 348.5575,66.7911 A 200.0000,200.0000 0 0,1 373.2089,91.4425" />
<path d="M 357.8880,104.2982 A 180.0000,180.0000 0 0,1 375.8846,130.0000" />
<path d="M 373.2089,91.4425 A 200.0000,200.0000 0 0,1 393.2051,120.0000" />
<path d="M 393.2051,120.0000 A 200.0000,200.0000 0 0,1 407.9385,151.5960" />
<path d="M 389.1447,158.4364 A 180.0000,180.0000 0 0,1 397.2654,188.7433" />
<path d="M 407.9385,151.5960 A 200.0000,200.0000 0 0,1 416.9616,185.2704" />
<path d="M 397.2654,188.7433 A 180.0000,180.0000 0 0,1 400.0000,220.0000" />
<path d="M 416.9616,185.2704 A 200.0000,200.0000 0 0,1 420.0000,220.0000" />
</g>
</svg>