<?xml version="1.0" standalone="no"?>
<!-- Copyright (c) Şafak Gümüş. Tüm hakları saklıdır. Ticari kullanım yasal sorumluluk doğurur. -->
<!DOCTYPE svg PUBLIC "-//W3C//DTD SVG 1.1//EN" "http://www.w3.org/Graphics/SVG/1.1/DTD/svg11.dtd">
<svg width="400" height="400" version="1.1" xmlns="http://www.w3.org/2000/svg">
<g fill="none" stroke="#000000" stroke-width="2" stroke-linecap="round" stroke-linejoin="round">
<path d="M 207.6537,218.4776 L 215.3073,236.9552" stroke="#000000" stroke-width="2" stroke-opacity="1.0" />
<path d="M 207.6537,218.4776 A 20.0000,20.0000 0 0,1 203.9018,219.6157" />
<path d="M 203.9018,219.6157 A 20.0000,20.0000 0 0,1 200.0000,220.0000" />
<path d="M 200.0000,220.0000 A 20.0000,20.0000 0 0,1 196.0982,219.6157" />
<path d="M 196.0982,219.6157 A 20.0000,20.0000 0 0,1 192.3463,218.4776" />
<path d="M 192.3463,218.4776 A 20.0000,20.0000 0 0,1 188.8886,216.6294" />
<path d="M 188.8886,216.6294 A 20.0000,20.0000 0 0,1 185.8579,214.1421" />
<path d="M 185.8579,214.1421 A 20.0000,20.0000 0 0,1 183.3706,211.1114" />
<path d="M 183.3706,211.1114 A 20.0000,20.0000 0 0,1 181.5224,207.6537" />
<path d="M 181.5224,207.6537 A 20.0000,20.0000 0 0,1 180.3843,203.9018" />
<path d="M 180.3843,203.9018 A 20.0000,20.0000 0 0,1 180.0000,200.0000" />
<path d="M 180.0000,200.0000 A 20.0000,20.0000 0 0,1 180.3843,196.0982" />
<path d="M 180.3843,196.0982 A 20.0000,20.0000 0 0,1 181.5224,192.3463" />
<path d="M 181.5224,192.3463 A 20.0000,20.0000 0 0,1 183.3706,188.8886" />
<path d="M 183.3706,188.8886 A 20.0000,20.0000 0 0,1 185.8579,185.8579" />
<path d="M 185.8579,185.8579 A 20.0000,20.0000 0 0,1 188.8886,183.3706" />
<path d="M 188.8886,183.3706 A 20.0000,20.0000 0 0,1 192.3463,181.5224" />
<path d="M 192.3463,181.5224 A 20.0000,20.0000 0 0,1 196.0982,180.3843" />
<path d="M 196.0982,180.3843 A 20.0000,20.0000 0 0,1 200.0000,180.0000" />
<path d="M 200.0000,180.0000 A 20.0000,20.0000 0 0,1 203.9018,180.3843" />
<path d="M 203.9018,180.3843 A 20.0000,20.0000 0 0,1 207.6537,181.5224" />
<path d="M 207.6537,181.5224 A 20.0000,20.0000 0 0,1 211.1114,183.3706" />
<path d="M 211.1114,183.3706 A 20.0000,20.0000 0 0,1 214.1421,185.8579" />
<path d="M 214.1421,185.8579 A 20.0000,20.0000 0 0,1 216.6294,188.8886" />
<path d="M 216.6294,188.8886 A 20.0000,20.0000 0 0,1 218.4776,192.3463" />
<path d="M 218.4776,192.3463 A 20.0000,20.0000 0 0,1 219.6157,196.0982" />
<path d="M 219.6157,196.0982 A 20.0000,20.0000 0 0,1 220.0000,200.0000" />
<path d="M 240.0000,200.0000 A 40.0000,40.0000 0 0,1 239.2314,207.8036" />
<path d="M 239.2314,207.8036 L 258.8471,211.7054" stroke="#000000" stroke-width="2" stroke-opacity="1.0" />
<path d="M 239.2314,207.8036 A 40.0000,40.0000 0 0,1 236.9552,215.3073" />
<path d="M 236.9552,215.3073 L 255.4328,222.9610" stroke="#000000" stroke-width="2" stroke-opacity="1.0" />
<path d="M 236.9552,215.3073 A 40.0000,40.0000 0 0,1 233.2588,222.2228" />
<path d="M 233.2588,222.2228 A 40.0000,40.0000 0 0,1 228.2843,228.2843" />
<path d="M 228.2843,228.2843 A 40.0000,40.0000 0 0,1 222.2228,233.2588" />
<path d="M 222.2228,233.2588 A 40.0000,40.0000 0 0,1 215.3073,236.9552" />
<path d="M 215.3073,236.9552 L 222.9610,255.4328" stroke="#000000" stroke-width="2" stroke-opacity="1.0" />
<path d="M 215.3073,236.9552 A 40.0000,40.0000 0 0,1 207.8036,239.2314" />
<path d="M 207.8036,239.2314 A 40.0000,40.0000 0 0,1 200.0000,240.0000" />
<path d="M 200.0000,240.0000 A 40.0000,40.0000 0 0,1 192.1964,239.2314" />
<path d="M 192.1964,239.2314 L 188.2946,258.8471" stroke="#000000" stroke-width="2" stroke-opacity="1.0" />
<path d="M 192.1964,239.2314 A 40.0000,40.0000 0 0,1 184.6927,236.9552" />
<path d="M 184.6927,236.9552 A 40.0000,40.0000 0 0,1 177.7772,233.2588" />
<path d="M 177.7772,233.2588 A 40.0000,40.0000 0 0,1 171.7157,228.2843" />
<path d="M 171.7157,228.2843 A 40.0000,40.0000 0 0,1 166.7412,222.2228" />
<path d="M 166.7412,222.2228 A 40.0000,40.0000 0 0,1 163.0448,215.3073" />
<path d="M 163.0448,215.3073 L 144.5672,222.9610" stroke="#000000" stroke-width="2" stroke-opacity="1.0" />
<path d="M 163.0448,215.3073 A 40.0000,40.0000 0 0,1 160.7686,207.8036" />
<path d="M 160.7686,207.8036 L 141.1529,211.7054" stroke="#000000" stroke-width="2" stroke-opacity="1.0" />
<path d="M 160.7686,207.8036 A 40.0000,40.0000 0 0,1 160.0000,200.0000" />
<path d="M 160.0000,200.0000 A 40.0000,40.0000 0 0,1 160.7686,192.1964" />
<path d="M 160.7686,192.1964 A 40.0000,40.0000 0 0,1 163.0448,184.6927" />
<path d="M 163.0448,184.6927 L 144.5672,177.0390" stroke="#000000" stroke-width="2" stroke-opacity="1.0" />
<path d="M 163.0448,184.6927 A 40.0000,40.0000 0 0,1 166.7412,177.7772" />
<path d="M 166.7412,177.7772 A 40.0000,40.0000 0 0,1 171.7157,171.7157" />
<path d="M 171.7157,171.7157 A 40.0000,40.0000 0 0,1 177.7772,166.7412" />
<path d="M 177.7772,166.7412 L 166.6658,150.1118" stroke="#000000" stroke-width="2" stroke-opacity="1.0" />
<path d="M 200.0000,160.0000 L 200.0000,140.0000" stroke="#000000" stroke-width="2" stroke-opacity="1.0" />
<path d="M 200.0000,160.0000 A 40.0000,40.0000 0 0,1 207.8036,160.7686" />
<path d="M 207.8036,160.7686 A 40.0000,40.0000 0 0,1 215.3073,163.0448" />
<path d="M 215.3073,163.0448 A 40.0000,40.0000 0 0,1 222.2228,166.7412" />
<path d="M 222.2228,166.7412 A 40.0000,40.0000 0 0,1 228.2843,171.7157" />
<path d="M 228.2843,171.7157 A 40.0000,40.0000 0 0,1 233.2588,177.7772" />
<path d="M 233.2588,177.7772 L 249.8882,166.6658" stroke="#000000" stroke-width="2" stroke-opacity="1.0" />
<path d="M 233.2588,177.7772 A 40.0000,40.0000 0 0,1 236.9552,184.6927" />
<path d="M 236.9552,184.6927 A 40.0000,40.0000 0 0,1 239.2314,192.1964" />
<path d="M 239.2314,192.1964 A 40.0000,40.0000 0 0,1 240.0000,200.0000" />
<path d="M 258.8471,211.7054 A 60.0000,60.0000 0 0,1 255.4328,222.9610" />
<path d="M 255.4328,222.9610 L 273.9104,230.6147" stroke="#000000" stroke-width="2" stroke-opacity="1.0" />
<path d="M 255.4328,222.9610 A 60.0000,60.0000 0 0,1 249.8882,233.3342" />
<path d="M 249.8882,233.3342 A 60.0000,60.0000 0 0,1 242.4264,242.4264" />
<path d="M 242.4264,242.4264 L 256.5685,256.5685" stroke="#000000" stroke-width="2" stroke-opacity="1.0" />
<path d="M 233.3342,249.8882 L 244.4456,266.5176" stroke="#000000" stroke-width="2" stroke-opacity="1.0" />
<path d="M 222.9610,255.4328 A 60.0000,60.0000 0 0,1 211.7054,258.8471" />
<path d="M 200.0000,260.0000 A 60.0000,60.0000 0 0,1 188.2946,258.8471" />
<path d="M 177.0390,255.4328 A 60.0000,60.0000 0 0,1 166.6658,249.8882" />
<path d="M 166.6658,249.8882 A 60.0000,60.0000 0 0,1 157.5736,242.4264" />
<path d="M 157.5736,242.4264 L 143.4315,256.5685" stroke="#000000" stroke-width="2" stroke-opacity="1.0" />
<path d="M 144.5672,222.9610 L 126.0896,230.6147" stroke="#000000" stroke-width="2" stroke-opacity="1.0" />
<path d="M 141.1529,211.7054 L 121.5372,215.6072" stroke="#000000" stroke-width="2" stroke-opacity="1.0" />
<path d="M 141.1529,211.7054 A 60.0000,60.0000 0 0,1 140.0000,200.0000" />
<path d="M 140.0000,200.0000 A 60.0000,60.0000 0 0,1 141.1529,188.2946" />
<path d="M 141.1529,188.2946 A 60.0000,60.0000 0 0,1 144.5672,177.0390" />
<path d="M 144.5672,177.0390 L 126.0896,169.3853" stroke="#000000" stroke-width="2" stroke-opacity="1.0" />
<path d="M 150.1118,166.6658 A 60.0000,60.0000 0 0,1 157.5736,157.5736" />
<path d="M 157.5736,157.5736 A 60.0000,60.0000 0 0,1 166.6658,150.1118" />
<path d="M 211.7054,141.1529 A 60.0000,60.0000 0 0,1 222.9610,144.5672" />
<path d="M 222.9610,144.5672 A 60.0000,60.0000 0 0,1 233.3342,150.1118" />
<path d="M 242.4264,157.5736 A 60.0000,60.0000 0 0,1 249.8882,166.6658" />
<path d="M 258.8471,188.2946 A 60.0000,60.0000 0 0,1 260.0000,200.0000" />
<path d="M 280.0000,200.0000 A 80.0000,80.0000 0 0,1 278.4628,215.6072" />
<path d="M 278.4628,215.6072 A 80.0000,80.0000 0 0,1 273.9104,230.6147" />
<path d="M 273.9104,230.6147 L 292.3880,238.2683" stroke="#000000" stroke-width="2" stroke-opacity="1.0" />
<path d="M 266.5176,244.4456 L 283.1470,255.5570" stroke="#000000" stroke-width="2" stroke-opacity="1.0" />
<path d="M 244.4456,266.5176 L 255.5570,283.1470" stroke="#000000" stroke-width="2" stroke-opacity="1.0" />
<path d="M 244.4456,266.5176 A 80.0000,80.0000 0 0,1 230.6147,273.9104" />
<path d="M 215.6072,278.4628 L 219.5090,298.0785" stroke="#000000" stroke-width="2" stroke-opacity="1.0" />
<path d="M 215.6072,278.4628 A 80.0000,80.0000 0 0,1 200.0000,280.0000" />
<path d="M 184.3928,278.4628 L 180.4910,298.0785" stroke="#000000" stroke-width="2" stroke-opacity="1.0" />
<path d="M 169.3853,273.9104 L 161.7317,292.3880" stroke="#000000" stroke-width="2" stroke-opacity="1.0" />
<path d="M 169.3853,273.9104 A 80.0000,80.0000 0 0,1 155.5544,266.5176" />
<path d="M 155.5544,266.5176 L 144.4430,283.1470" stroke="#000000" stroke-width="2" stroke-opacity="1.0" />
<path d="M 155.5544,266.5176 A 80.0000,80.0000 0 0,1 143.4315,256.5685" />
<path d="M 143.4315,256.5685 L 129.2893,270.7107" stroke="#000000" stroke-width="2" stroke-opacity="1.0" />
<path d="M 133.4824,244.4456 L 116.8530,255.5570" stroke="#000000" stroke-width="2" stroke-opacity="1.0" />
<path d="M 133.4824,244.4456 A 80.0000,80.0000 0 0,1 126.0896,230.6147" />
<path d="M 121.5372,215.6072 L 101.9215,219.5090" stroke="#000000" stroke-width="2" stroke-opacity="1.0" />
<path d="M 120.0000,200.0000 A 80.0000,80.0000 0 0,1 121.5372,184.3928" />
<path d="M 121.5372,184.3928 L 101.9215,180.4910" stroke="#000000" stroke-width="2" stroke-opacity="1.0" />
<path d="M 121.5372,184.3928 A 80.0000,80.0000 0 0,1 126.0896,169.3853" />
<path d="M 126.0896,169.3853 A 80.0000,80.0000 0 0,1 133.4824,155.5544" />
<path d="M 133.4824,155.5544 L 116.8530,144.4430" stroke="#000000" stroke-width="2" stroke-opacity="1.0" />
<path d="M 143.4315,143.4315 L 129.2893,129.2893" stroke="#000000" stroke-width="2" stroke-opacity="1.0" />
<path d="M 155.5544,133.4824 L 144.4430,116.8530" stroke="#000000" stroke-width="2" stroke-opacity="1.0" />
<path d="M 155.5544,133.4824 A 80.0000,80.0000 0 0,1 169.3853,126.0896" />
<path d="M 169.3853,126.0896 L 161.7317,107.6120" stroke="#000000" stroke-width="2" stroke-opacity="1.0" />
<path d="M 184.3928,121.5372 L 180.4910,101.9215" stroke="#000000" stroke-width="2" stroke-opacity="1.0" />
<path d="M 184.3928,121.5372 A 80.0000,80.0000 0 0,1 200.0000,120.0000" />
<path d="M 215.6072,121.5372 A 80.0000,80.0000 0 0,1 230.6147,126.0896" />
<path d="M 230.6147,126.0896 L 238.2683,107.6120" stroke="#000000" stroke-width="2" stroke-opacity="1.0" />
<path d="M 230.6147,126.0896 A 80.0000,80.0000 0 0,1 244.4456,133.4824" />
<path d="M 244.4456,133.4824 A 80.0000,80.0000 0 0,1 256.5685,143.4315" />
<path d="M 266.5176,155.5544 L 283.1470,144.4430" stroke="#000000" stroke-width="2" stroke-opacity="1.0" />
<path d="M 273.9104,169.3853 L 292.3880,161.7317" stroke="#000000" stroke-width="2" stroke-opacity="1.0" />
<path d="M 273.9104,169.3853 A 80.0000,80.0000 0 0,1 278.4628,184.3928" />
<path d="M 278.4628,184.3928 A 80.0000,80.0000 0 0,1 280.0000,200.0000" />
<path d="M 280.0000,200.0000 L 300.0000,200.0000" stroke="#000000" stroke-width="2" stroke-opacity="1.0" />
<path d="M 300.0000,200.0000 A 100.0000,100.0000 0 0,1 298.0785,219.5090" />
<path d="M 298.0785,219.5090 L 317.6942,223.4108" stroke="#000000" stroke-width="2" stroke-opacity="1.0" />
<path d="M 292.3880,238.2683 L 310.8655,245.9220" stroke="#000000" stroke-width="2" stroke-opacity="1.0" />
<path d="M 292.3880,238.2683 A 100.0000,100.0000 0 0,1 283.1470,255.5570" />
<path d="M 283.1470,255.5570 L 299.7764,266.6684" stroke="#000000" stroke-width="2" stroke-opacity="1.0" />
<path d="M 270.7107,270.7107 A 100.0000,100.0000 0 0,1 255.5570,283.1470" />
<path d="M 255.5570,283.1470 A 100.0000,100.0000 0 0,1 238.2683,292.3880" />
<path d="M 238.2683,292.3880 L 245.9220,310.8655" stroke="#000000" stroke-width="2" stroke-opacity="1.0" />
<path d="M 238.2683,292.3880 A 100.0000,100.0000 0 0,1 219.5090,298.0785" />
<path d="M 219.5090,298.0785 L 223.4108,317.6942" stroke="#000000" stroke-width="2" stroke-opacity="1.0" />
<path d="M 219.5090,298.0785 A 100.0000,100.0000 0 0,1 200.0000,300.0000" />
<path d="M 200.0000,300.0000 A 100.0000,100.0000 0 0,1 180.4910,298.0785" />
<path d="M 180.4910,298.0785 L 176.5892,317.6942" stroke="#000000" stroke-width="2" stroke-opacity="1.0" />
<path d="M 129.2893,270.7107 A 100.0000,100.0000 0 0,1 116.8530,255.5570" />
<path d="M 116.8530,255.5570 A 100.0000,100.0000 0 0,1 107.6120,238.2683" />
<path d="M 100.0000,200.0000 L 80.0000,200.0000" stroke="#000000" stroke-width="2" stroke-opacity="1.0" />
<path d="M 101.9215,180.4910 L 82.3058,176.5892" stroke="#000000" stroke-width="2" stroke-opacity="1.0" />
<path d="M 107.6120,161.7317 L 89.1345,154.0780" stroke="#000000" stroke-width="2" stroke-opacity="1.0" />
<path d="M 107.6120,161.7317 A 100.0000,100.0000 0 0,1 116.8530,144.4430" />
<path d="M 116.8530,144.4430 A 100.0000,100.0000 0 0,1 129.2893,129.2893" />
<path d="M 161.7317,107.6120 L 154.0780,89.1345" stroke="#000000" stroke-width="2" stroke-opacity="1.0" />
<path d="M 180.4910,101.9215 L 176.5892,82.3058" stroke="#000000" stroke-width="2" stroke-opacity="1.0" />
<path d="M 200.0000,100.0000 L 200.0000,80.0000" stroke="#000000" stroke-width="2" stroke-opacity="1.0" />
<path d="M 219.5090,101.9215 A 100.0000,100.0000 0 0,1 238.2683,107.6120" />
<path d="M 238.2683,107.6120 L 245.9220,89.1345" stroke="#000000" stroke-width="2" stroke-opacity="1.0" />
<path d="M 255.5570,116.8530 L 266.6684,100.2236" stroke="#000000" stroke-width="2" stroke-opacity="1.0" />
<path d="M 255.5570,116.8530 A 100.0000,100.0000 0 0,1 270.7107,129.2893" />
<path d="M 283.1470,144.4430 L 299.7764,133.3316" stroke="#000000" stroke-width="2" stroke-opacity="1.0" />
<path d="M 292.3880,161.7317 A 100.0000,100.0000 0 0,1 298.0785,180.4910" />
<path d="M 298.0785,180.4910 L 317.6942,176.5892" stroke="#000000" stroke-width="2" stroke-opacity="1.0" />
<path d="M 300.0000,200.0000 L 320.0000,200.0000" stroke="#000000" stroke-width="2" stroke-opacity="1.0" />
<path d="M 317.6942,223.4108 L 337.3099,227.3126" stroke="#000000" stroke-width="2" stroke-opacity="1.0" />
<path d="M 299.7764,266.6684 L 316.4057,277.7798" stroke="#000000" stroke-width="2" stroke-opacity="1.0" />
<path d="M 284.8528,284.8528 A 120.0000,120.0000 0 0,1 266.6684,299.7764" />
<path d="M 266.6684,299.7764 L 277.7798,316.4057" stroke="#000000" stroke-width="2" stroke-opacity="1.0" />
<path d="M 266.6684,299.7764 A 120.0000,120.0000 0 0,1 245.9220,310.8655" />
<path d="M 223.4108,317.6942 A 120.0000,120.0000 0 0,1 200.0000,320.0000" />
<path d="M 200.0000,320.0000 L 200.0000,340.0000" stroke="#000000" stroke-width="2" stroke-opacity="1.0" />
<path d="M 176.5892,317.6942 L 172.6874,337.3099" stroke="#000000" stroke-width="2" stroke-opacity="1.0" />
<path d="M 154.0780,310.8655 L 146.4243,329.3431" stroke="#000000" stroke-width="2" stroke-opacity="1.0" />
<path d="M 154.0780,310.8655 A 120.0000,120.0000 0 0,1 133.3316,299.7764" />
<path d="M 133.3316,299.7764 L 122.2202,316.4057" stroke="#000000" stroke-width="2" stroke-opacity="1.0" />
<path d="M 133.3316,299.7764 A 120.0000,120.0000 0 0,1 115.1472,284.8528" />
<path d="M 115.1472,284.8528 L 101.0051,298.9949" stroke="#000000" stroke-width="2" stroke-opacity="1.0" />
<path d="M 100.2236,266.6684 L 83.5943,277.7798" stroke="#000000" stroke-width="2" stroke-opacity="1.0" />
<path d="M 89.1345,245.9220 L 70.6569,253.5757" stroke="#000000" stroke-width="2" stroke-opacity="1.0" />
<path d="M 82.3058,223.4108 A 120.0000,120.0000 0 0,1 80.0000,200.0000" />
<path d="M 80.0000,200.0000 A 120.0000,120.0000 0 0,1 82.3058,176.5892" />
<path d="M 100.2236,133.3316 L 83.5943,122.2202" stroke="#000000" stroke-width="2" stroke-opacity="1.0" />
<path d="M 100.2236,133.3316 A 120.0000,120.0000 0 0,1 115.1472,115.1472" />
<path d="M 115.1472,115.1472 L 101.0051,101.0051" stroke="#000000" stroke-width="2" stroke-opacity="1.0" />
<path d="M 133.3316,100.2236 A 120.0000,120.0000 0 0,1 154.0780,89.1345" />
<path d="M 154.0780,89.1345 L 146.4243,70.6569" stroke="#000000" stroke-width="2" stroke-opacity="1.0" />
<path d="M 154.0780,89.1345 A 120.0000,120.0000 0 0,1 176.5892,82.3058" />
<path d="M 176.5892,82.3058 L 172.6874,62.6901" stroke="#000000" stroke-width="2" stroke-opacity="1.0" />
<path d="M 176.5892,82.3058 A 120.0000,120.0000 0 0,1 200.0000,80.0000" />
<path d="M 200.0000,80.0000 L 200.0000,60.0000" stroke="#000000" stroke-width="2" stroke-opacity="1.0" />
<path d="M 223.4108,82.3058 L 227.3126,62.6901" stroke="#000000" stroke-width="2" stroke-opacity="1.0" />
<path d="M 223.4108,82.3058 A 120.0000,120.0000 0 0,1 245.9220,89.1345" />
<path d="M 245.9220,89.1345 A 120.0000,120.0000 0 0,1 266.6684,100.2236" />
<path d="M 266.6684,100.2236 L 277.7798,83.5943" stroke="#000000" stroke-width="2" stroke-opacity="1.0" />
<path d="M 266.6684,100.2236 A 120.0000,120.0000 0 0,1 284.8528,115.1472" />
<path d="M 310.8655,154.0780 L 329.3431,146.4243" stroke="#000000" stroke-width="2" stroke-opacity="1.0" />
<path d="M 310.8655,154.0780 A 120.0000,120.0000 0 0,1 317.6942,176.5892" />
<path d="M 317.6942,176.5892 L 337.3099,172.6874" stroke="#000000" stroke-width="2" stroke-opacity="1.0" />
<path d="M 320.0000,200.0000 L 340.0000,200.0000" stroke="#000000" stroke-width="2" stroke-opacity="1.0" />
<path d="M 337.3099,227.3126 L 356.9256,231.2145" stroke="#000000" stroke-width="2" stroke-opacity="1.0" />
<path d="M 337.3099,227.3126 A 140.0000,140.0000 0 0,1 329.3431,253.5757" />
<path d="M 316.4057,277.7798 A 140.0000,140.0000 0 0,1 298.9949,298.9949" />
<path d="M 298.9949,298.9949 L 313.1371,313.1371" stroke="#000000" stroke-width="2" stroke-opacity="1.0" />
<path d="M 277.7798,316.4057 A 140.0000,140.0000 0 0,1 253.5757,329.3431" />
<path d="M 227.3126,337.3099 A 140.0000,140.0000 0 0,1 200.0000,340.0000" />
<path d="M 122.2202,316.4057 L 111.1088,333.0351" stroke="#000000" stroke-width="2" stroke-opacity="1.0" />
<path d="M 101.0051,298.9949 A 140.0000,140.0000 0 0,1 83.5943,277.7798" />
<path d="M 83.5943,277.7798 L 66.9649,288.8912" stroke="#000000" stroke-width="2" stroke-opacity="1.0" />
<path d="M 70.6569,253.5757 L 52.1793,261.2293" stroke="#000000" stroke-width="2" stroke-opacity="1.0" />
<path d="M 62.6901,227.3126 L 43.0744,231.2145" stroke="#000000" stroke-width="2" stroke-opacity="1.0" />
<path d="M 60.0000,200.0000 L 40.0000,200.0000" stroke="#000000" stroke-width="2" stroke-opacity="1.0" />
<path d="M 62.6901,172.6874 L 43.0744,168.7855" stroke="#000000" stroke-width="2" stroke-opacity="1.0" />
<path d="M 70.6569,146.4243 A 140.0000,140.0000 0 0,1 83.5943,122.2202" />
<path d="M 101.0051,101.0051 A 140.0000,140.0000 0 0,1 122.2202,83.5943" />
<path d="M 122.2202,83.5943 A 140.0000,140.0000 0 0,1 146.4243,70.6569" />
<path d="M 200.0000,60.0000 L 200.0000,40.0000" stroke="#000000" stroke-width="2" stroke-opacity="1.0" />
<path d="M 200.0000,60.0000 A 140.0000,140.0000 0 0,1 227.3126,62.6901" />
<path d="M 227.3126,62.6901 A 140.0000,140.0000 0 0,1 253.5757,70.6569" />
<path d="M 253.5757,70.6569 L 261.2293,52.1793" stroke="#000000" stroke-width="2" stroke-opacity="1.0" />
<path d="M 277.7798,83.5943 A 140.0000,140.0000 0 0,1 298.9949,101.0051" />
<path d="M 298.9949,101.0051 A 140.0000,140.0000 0 0,1 316.4057,122.2202" />
<path d="M 380.0000,200.0000 A 180.0000,180.0000 0 0,1 376.5414,235.1163" />
<path d="M 356.9256,231.2145 A 160.0000,160.0000 0 0,1 347.8207,261.2293" />
<path d="M 376.5414,235.1163 A 180.0000,180.0000 0 0,1 366.2983,268.8830" />
<path d="M 347.8207,261.2293 A 160.0000,160.0000 0 0,1 333.0351,288.8912" />
<path d="M 366.2983,268.8830 A 180.0000,180.0000 0 0,1 349.6645,300.0026" />
<path d="M 349.6645,300.0026 A 180.0000,180.0000 0 0,1 327.2792,327.2792" />
<path d="M 313.1371,313.1371 A 160.0000,160.0000 0 0,1 288.8912,333.0351" />
<path d="M 327.2792,327.2792 A 180.0000,180.0000 0 0,1 300.0026,349.6645" />
<path d="M 288.8912,333.0351 A 160.0000,160.0000 0 0,1 261.2293,347.8207" />
<path d="M 300.0026,349.6645 A 180.0000,180.0000 0 0,1 268.8830,366.2983" />
<path d="M 261.2293,347.8207 A 160.0000,160.0000 0 0,1 231.2145,356.9256" />
<path d="M 268.8830,366.2983 A 180.0000,180.0000 0 0,1 235.1163,376.5414" />
<path d="M 231.2145,356.9256 A 160.0000,160.0000 0 0,1 200.0000,360.0000" />
<path d="M 235.1163,376.5414 A 180.0000,180.0000 0 0,1 200.0000,380.0000" />
<path d="M 168.7855,356.9256 A 160.0000,160.0000 0 0,1 138.7707,347.8207" />
<path d="M 164.8837,376.5414 A 180.0000,180.0000 0 0,1 131.1170,366.2983" />
<path d="M 138.7707,347.8207 A 160.0000,160.0000 0 0,1 111.1088,333.0351" />
<path d="M 131.1170,366.2983 A 180.0000,180.0000 0 0,1 99.9974,349.6645" />
<path d="M 99.9974,349.6645 A 180.0000,180.0000 0 0,1 72.7208,327.2792" />
<path d="M 86.8629,313.1371 A 160.0000,160.0000 0 0,1 66.9649,288.8912" />
<path d="M 72.7208,327.2792 A 180.0000,180.0000 0 0,1 50.3355,300.0026" />
<path d="M 66.9649,288.8912 A 160.0000,160.0000 0 0,1 52.1793,261.2293" />
<path d="M 50.3355,300.0026 A 180.0000,180.0000 0 0,1 33.7017,268.8830" />
<path d="M 52.1793,261.2293 L 33.7017,268.8830" stroke="#000000" stroke-width="2" stroke-opacity="1.0" />
<path d="M 33.7017,268.8830 A 180.0000,180.0000 0 0,1 23.4586,235.1163" />
<path d="M 43.0744,231.2145 A 160.0000,160.0000 0 0,1 40.0000,200.0000" />
<path d="M 23.4586,235.1163 A 180.0000,180.0000 0 0,1 20.0000,200.0000" />
<path d="M 40.0000,200.0000 L 20.0000,200.0000" stroke="#000000" stroke-width="2" stroke-opacity="1.0" />
<path d="M 20.0000,200.0000 A 180.0000,180.0000 0 0,1 23.4586,164.8837" />
<path d="M 43.0744,168.7855 L 23.4586,164.8837" stroke="#000000" stroke-width="2" stroke-opacity="1.0" />
<path d="M 43.0744,168.7855 A 160.0000,160.0000 0 0,1 52.1793,138.7707" />
<path d="M 23.4586,164.8837 A 180.0000,180.0000 0 0,1 33.7017,131.1170" />
<path d="M 33.7017,131.1170 A 180.0000,180.0000 0 0,1 50.3355,99.9974" />
<path d="M 66.9649,111.1088 A 160.0000,160.0000 0 0,1 86.8629,86.8629" />
<path d="M 50.3355,99.9974 A 180.0000,180.0000 0 0,1 72.7208,72.7208" />
<path d="M 86.8629,86.8629 L 72.7208,72.7208" stroke="#000000" stroke-width="2" stroke-opacity="1.0" />
<path d="M 86.8629,86.8629 A 160.0000,160.0000 0 0,1 111.1088,66.9649" />
<path d="M 72.7208,72.7208 A 180.0000,180.0000 0 0,1 99.9974,50.3355" />
<path d="M 99.9974,50.3355 A 180.0000,180.0000 0 0,1 131.1170,33.7017" />
<path d="M 138.7707,52.1793 L 131.1170,33.7017" stroke="#000000" stroke-width="2" stroke-opacity="1.0" />
<path d="M 131.1170,33.7017 A 180.0000,180.0000 0 0,1 164.8837,23.4586" />
<path d="M 168.7855,43.0744 L 164.8837,23.4586" stroke="#000000" stroke-width="2" stroke-opacity="1.0" />
<path d="M 168.7855,43.0744 A 160.0000,160.0000 0 0,1 200.0000,40.0000" />
<path d="M 164.8837,23.4586 A 180.0000,180.0000 0 0,1 200.0000,20.0000" />
<path d="M 200.0000,40.0000 A 160.0000,160.0000 0 0,1 231.2145,43.0744" />
<path d="M 200.0000,20.0000 A 180.0000,180.0000 0 0,1 235.1163,23.4586" />
<path d="M 235.1163,23.4586 A 180.0000,180.0000 0 0,1 268.8830,33.7017" />
<path d="M 261.2293,52.1793 A 160.0000,160.0000 0 0,1 288.8912,66.9649" />
<path d="M 268.8830,33.7017 A 180.0000,180.0000 0 0,1 300.0026,50.3355" />
<path d="M 288.8912,66.9649 A 160.0000,160.0000 0 0,1 313.1371,86.8629" />
<path d="M 300.0026,50.3355 A 180.0000,180.0000 0 0,1 327.2792,72.7208" />
<path d="M 327.2792,72.7208 A 180.0000,180.0000 0 0,1 349.6645,99.9974" />
<path d="M 333.0351,111.1088 L 349.6645,99.9974" stroke="#000000" stroke-width="2" stroke-opacity="1.0" />
<path d="M 333.0351,111.1088 A 160.0000,160.0000 0 0,1 347.8207,138.7707" />
<path d="M 349.6645,99.9974 A 180.0000,180.0000 0 0,1 366.2983,131.1170" />
<path d="M 366.2983,131.1170 A 180.0000,180.0000 0 0,1 376.5414,164.8837" />
<path d="M 356.9256,168.7855 L 376.5414,164.8837" stroke="#000000" stroke-width="2" stroke-opacity="1.0" />
<path d="M 376.5414,164.8837 A 180.0000,180.0000 0 0,1 380.0000,200.0000" />
<path d="M 360.0000,200.0000 L 380.0000,200.0000" stroke="#000000" stroke-width="2" stroke-opacity="1.0" />
</g>
</svg>