<?xml version="1.0" standalone="no"?>
<!-- Copyright (c) Şafak Gümüş. Tüm hakları saklıdır. Ticari kullanım yasal sorumluluk doğurur. -->
<!DOCTYPE svg PUBLIC "-//W3C//DTD SVG 1.1//EN" "http://www.w3.org/Graphics/SVG/1.1/DTD/svg11.dtd">
<svg width="160" height="160" version="1.1" xmlns="http://www.w3.org/2000/svg">
<g fill="none" stroke="#000000" stroke-width="2" stroke-linecap="round" stroke-linejoin="round">
<path d="M 100.0000,80.0000 A 20.0000,20.0000 0 0,1 96.1803,91.7557" />
<path d="M 96.1803,91.7557 A 20.0000,20.0000 0 0,1 86.1803,99.0211" />
<path d="M 86.1803,99.0211 L 92.3607,118.0423" stroke="#000000" stroke-width="2" stroke-opacity="1.0" />
<path d="M 86.1803,99.0211 A 20.0000,20.0000 0 0,1 73.8197,99.0211" />
<path d="M 73.8197,99.0211 A 20.0000,20.0000 0 0,1 63.8197,91.7557" />
<path d="M 63.8197,91.7557 A 20.0000,20.0000 0 0,1 60.0000,80.0000" />
<path d="M 60.0000,80.0000 L 40.0000,80.0000" stroke="#000000" stroke-width="2" stroke-opacity="1.0" />
<path d="M 60.0000,80.0000 A 20.0000,20.0000 0 0,1 63.8197,68.2443" />
<path d="M 63.8197,68.2443 A 20.0000,20.0000 0 0,1 73.8197,60.9789" />
<path d="M 73.8197,60.9789 A 20.0000,20.0000 0 0,1 86.1803,60.9789" />
<path d="M 120.0000,80.0000 A 40.0000,40.0000 0 0,1 112.3607,103.5114" />
<path d="M 140.0000,80.0000 A 60.0000,60.0000 0 0,1 128.5410,115.2671" />
<path d="M 128.5410,115.2671 A 60.0000,60.0000 0 0,1 98.5410,137.0634" />
<path d="M 92.3607,118.0423 L 98.5410,137.0634" stroke="#000000" stroke-width="2" stroke-opacity="1.0" />
<path d="M 98.5410,137.0634 A 60.0000,60.0000 0 0,1 61.4590,137.0634" />
<path d="M 67.6393,118.0423 A 40.0000,40.0000 0 0,1 47.6393,103.5114" />
<path d="M 47.6393,103.5114 L 31.4590,115.2671" stroke="#000000" stroke-width="2" stroke-opacity="1.0" />
<path d="M 31.4590,115.2671 A 60.0000,60.0000 0 0,1 20.0000,80.0000" />
<path d="M 40.0000,80.0000 A 40.0000,40.0000 0 0,1 47.6393,56.4886" />
<path d="M 20.0000,80.0000 A 60.0000,60.0000 0 0,1 31.4590,44.7329" />
<path d="M 47.6393,56.4886 A 40.0000,40.0000 0 0,1 67.6393,41.9577" />
<path d="M 31.4590,44.7329 A 60.0000,60.0000 0 0,1 61.4590,22.9366" />
<path d="M 61.4590,22.9366 A 60.0000,60.0000 0 0,1 98.5410,22.9366" />
<path d="M 92.3607,41.9577 L 98.5410,22.9366" stroke="#000000" stroke-width="2" stroke-opacity="1.0" />
<path d="M 92.3607,41.9577 A 40.0000,40.0000 0 0,1 112.3607,56.4886" />
<path d="M 98.5410,22.9366 A 60.0000,60.0000 0 0,1 128.5410,44.7329" />
<path d="M 112.3607,56.4886 A 40.0000,40.0000 0 0,1 120.0000,80.0000" />
<path d="M 128.5410,44.7329 A 60.0000,60.0000 0 0,1 140.0000,80.0000" />
</g>
</svg>