<?xml version="1.0" standalone="no"?>
<!-- Copyright (c) Şafak Gümüş. Tüm hakları saklıdır. Ticari kullanım yasal sorumluluk doğurur. -->
<!DOCTYPE svg PUBLIC "-//W3C//DTD SVG 1.1//EN" "http://www.w3.org/Graphics/SVG/1.1/DTD/svg11.dtd">
<svg width="360" height="360" version="1.1" xmlns="http://www.w3.org/2000/svg">
<g fill="none" stroke="#000000" stroke-width="2" stroke-linecap="round" stroke-linejoin="round">
<path d="M 200.0000,180.0000 A 20.0000,20.0000 0 0,1 199.4986,184.4504" />
<path d="M 184.4504,199.4986 A 20.0000,20.0000 0 0,1 180.0000,200.0000" />
<path d="M 180.0000,200.0000 A 20.0000,20.0000 0 0,1 175.5496,199.4986" />
<path d="M 175.5496,199.4986 A 20.0000,20.0000 0 0,1 171.3223,198.0194" />
<path d="M 171.3223,198.0194 A 20.0000,20.0000 0 0,1 167.5302,195.6366" />
<path d="M 167.5302,195.6366 A 20.0000,20.0000 0 0,1 164.3634,192.4698" />
<path d="M 164.3634,192.4698 A 20.0000,20.0000 0 0,1 161.9806,188.6777" />
<path d="M 161.9806,188.6777 A 20.0000,20.0000 0 0,1 160.5014,184.4504" />
<path d="M 160.5014,184.4504 A 20.0000,20.0000 0 0,1 160.0000,180.0000" />
<path d="M 160.0000,180.0000 A 20.0000,20.0000 0 0,1 160.5014,175.5496" />
<path d="M 160.5014,175.5496 A 20.0000,20.0000 0 0,1 161.9806,171.3223" />
<path d="M 161.9806,171.3223 A 20.0000,20.0000 0 0,1 164.3634,167.5302" />
<path d="M 164.3634,167.5302 A 20.0000,20.0000 0 0,1 167.5302,164.3634" />
<path d="M 167.5302,164.3634 A 20.0000,20.0000 0 0,1 171.3223,161.9806" />
<path d="M 171.3223,161.9806 A 20.0000,20.0000 0 0,1 175.5496,160.5014" />
<path d="M 175.5496,160.5014 A 20.0000,20.0000 0 0,1 180.0000,160.0000" />
<path d="M 180.0000,160.0000 A 20.0000,20.0000 0 0,1 184.4504,160.5014" />
<path d="M 184.4504,160.5014 A 20.0000,20.0000 0 0,1 188.6777,161.9806" />
<path d="M 188.6777,161.9806 A 20.0000,20.0000 0 0,1 192.4698,164.3634" />
<path d="M 192.4698,164.3634 A 20.0000,20.0000 0 0,1 195.6366,167.5302" />
<path d="M 195.6366,167.5302 A 20.0000,20.0000 0 0,1 198.0194,171.3223" />
<path d="M 198.0194,171.3223 A 20.0000,20.0000 0 0,1 199.4986,175.5496" />
<path d="M 199.4986,175.5496 A 20.0000,20.0000 0 0,1 200.0000,180.0000" />
<path d="M 220.0000,180.0000 A 40.0000,40.0000 0 0,1 218.9971,188.9008" />
<path d="M 218.9971,188.9008 L 238.4957,193.3513" stroke="#000000" stroke-width="2" stroke-opacity="1.0" />
<path d="M 218.9971,188.9008 A 40.0000,40.0000 0 0,1 216.0388,197.3553" />
<path d="M 204.9396,211.2733 L 217.4094,226.9099" stroke="#000000" stroke-width="2" stroke-opacity="1.0" />
<path d="M 204.9396,211.2733 A 40.0000,40.0000 0 0,1 197.3553,216.0388" />
<path d="M 197.3553,216.0388 A 40.0000,40.0000 0 0,1 188.9008,218.9971" />
<path d="M 188.9008,218.9971 L 193.3513,238.4957" stroke="#000000" stroke-width="2" stroke-opacity="1.0" />
<path d="M 188.9008,218.9971 A 40.0000,40.0000 0 0,1 180.0000,220.0000" />
<path d="M 180.0000,220.0000 A 40.0000,40.0000 0 0,1 171.0992,218.9971" />
<path d="M 171.0992,218.9971 A 40.0000,40.0000 0 0,1 162.6447,216.0388" />
<path d="M 162.6447,216.0388 A 40.0000,40.0000 0 0,1 155.0604,211.2733" />
<path d="M 155.0604,211.2733 L 142.5906,226.9099" stroke="#000000" stroke-width="2" stroke-opacity="1.0" />
<path d="M 155.0604,211.2733 A 40.0000,40.0000 0 0,1 148.7267,204.9396" />
<path d="M 148.7267,204.9396 A 40.0000,40.0000 0 0,1 143.9612,197.3553" />
<path d="M 143.9612,197.3553 A 40.0000,40.0000 0 0,1 141.0029,188.9008" />
<path d="M 141.0029,188.9008 A 40.0000,40.0000 0 0,1 140.0000,180.0000" />
<path d="M 140.0000,180.0000 A 40.0000,40.0000 0 0,1 141.0029,171.0992" />
<path d="M 141.0029,171.0992 L 121.5043,166.6487" stroke="#000000" stroke-width="2" stroke-opacity="1.0" />
<path d="M 148.7267,155.0604 L 133.0901,142.5906" stroke="#000000" stroke-width="2" stroke-opacity="1.0" />
<path d="M 148.7267,155.0604 A 40.0000,40.0000 0 0,1 155.0604,148.7267" />
<path d="M 155.0604,148.7267 A 40.0000,40.0000 0 0,1 162.6447,143.9612" />
<path d="M 162.6447,143.9612 A 40.0000,40.0000 0 0,1 171.0992,141.0029" />
<path d="M 171.0992,141.0029 A 40.0000,40.0000 0 0,1 180.0000,140.0000" />
<path d="M 180.0000,140.0000 A 40.0000,40.0000 0 0,1 188.9008,141.0029" />
<path d="M 188.9008,141.0029 A 40.0000,40.0000 0 0,1 197.3553,143.9612" />
<path d="M 197.3553,143.9612 L 206.0330,125.9419" stroke="#000000" stroke-width="2" stroke-opacity="1.0" />
<path d="M 197.3553,143.9612 A 40.0000,40.0000 0 0,1 204.9396,148.7267" />
<path d="M 218.9971,171.0992 L 238.4957,166.6487" stroke="#000000" stroke-width="2" stroke-opacity="1.0" />
<path d="M 218.9971,171.0992 A 40.0000,40.0000 0 0,1 220.0000,180.0000" />
<path d="M 226.9099,217.4094 L 242.5465,229.8792" stroke="#000000" stroke-width="2" stroke-opacity="1.0" />
<path d="M 226.9099,217.4094 A 60.0000,60.0000 0 0,1 217.4094,226.9099" />
<path d="M 206.0330,234.0581 A 60.0000,60.0000 0 0,1 193.3513,238.4957" />
<path d="M 193.3513,238.4957 L 197.8017,257.9942" stroke="#000000" stroke-width="2" stroke-opacity="1.0" />
<path d="M 166.6487,238.4957 A 60.0000,60.0000 0 0,1 153.9670,234.0581" />
<path d="M 153.9670,234.0581 L 145.2893,252.0775" stroke="#000000" stroke-width="2" stroke-opacity="1.0" />
<path d="M 153.9670,234.0581 A 60.0000,60.0000 0 0,1 142.5906,226.9099" />
<path d="M 142.5906,226.9099 L 130.1208,242.5465" stroke="#000000" stroke-width="2" stroke-opacity="1.0" />
<path d="M 125.9419,206.0330 A 60.0000,60.0000 0 0,1 121.5043,193.3513" />
<path d="M 121.5043,193.3513 L 102.0058,197.8017" stroke="#000000" stroke-width="2" stroke-opacity="1.0" />
<path d="M 120.0000,180.0000 A 60.0000,60.0000 0 0,1 121.5043,166.6487" />
<path d="M 133.0901,142.5906 L 117.4535,130.1208" stroke="#000000" stroke-width="2" stroke-opacity="1.0" />
<path d="M 142.5906,133.0901 A 60.0000,60.0000 0 0,1 153.9670,125.9419" />
<path d="M 153.9670,125.9419 A 60.0000,60.0000 0 0,1 166.6487,121.5043" />
<path d="M 166.6487,121.5043 L 162.1983,102.0058" stroke="#000000" stroke-width="2" stroke-opacity="1.0" />
<path d="M 166.6487,121.5043 A 60.0000,60.0000 0 0,1 180.0000,120.0000" />
<path d="M 193.3513,121.5043 L 197.8017,102.0058" stroke="#000000" stroke-width="2" stroke-opacity="1.0" />
<path d="M 193.3513,121.5043 A 60.0000,60.0000 0 0,1 206.0330,125.9419" />
<path d="M 206.0330,125.9419 A 60.0000,60.0000 0 0,1 217.4094,133.0901" />
<path d="M 217.4094,133.0901 A 60.0000,60.0000 0 0,1 226.9099,142.5906" />
<path d="M 234.0581,153.9670 L 252.0775,145.2893" stroke="#000000" stroke-width="2" stroke-opacity="1.0" />
<path d="M 238.4957,166.6487 L 257.9942,162.1983" stroke="#000000" stroke-width="2" stroke-opacity="1.0" />
<path d="M 238.4957,166.6487 A 60.0000,60.0000 0 0,1 240.0000,180.0000" />
<path d="M 260.0000,180.0000 A 80.0000,80.0000 0 0,1 257.9942,197.8017" />
<path d="M 257.9942,197.8017 A 80.0000,80.0000 0 0,1 252.0775,214.7107" />
<path d="M 242.5465,229.8792 A 80.0000,80.0000 0 0,1 229.8792,242.5465" />
<path d="M 229.8792,242.5465 A 80.0000,80.0000 0 0,1 214.7107,252.0775" />
<path d="M 214.7107,252.0775 L 223.3884,270.0969" stroke="#000000" stroke-width="2" stroke-opacity="1.0" />
<path d="M 197.8017,257.9942 A 80.0000,80.0000 0 0,1 180.0000,260.0000" />
<path d="M 180.0000,260.0000 L 180.0000,280.0000" stroke="#000000" stroke-width="2" stroke-opacity="1.0" />
<path d="M 162.1983,257.9942 L 157.7479,277.4928" stroke="#000000" stroke-width="2" stroke-opacity="1.0" />
<path d="M 162.1983,257.9942 A 80.0000,80.0000 0 0,1 145.2893,252.0775" />
<path d="M 117.4535,229.8792 L 101.8169,242.3490" stroke="#000000" stroke-width="2" stroke-opacity="1.0" />
<path d="M 117.4535,229.8792 A 80.0000,80.0000 0 0,1 107.9225,214.7107" />
<path d="M 107.9225,214.7107 L 89.9031,223.3884" stroke="#000000" stroke-width="2" stroke-opacity="1.0" />
<path d="M 107.9225,214.7107 A 80.0000,80.0000 0 0,1 102.0058,197.8017" />
<path d="M 102.0058,197.8017 A 80.0000,80.0000 0 0,1 100.0000,180.0000" />
<path d="M 100.0000,180.0000 A 80.0000,80.0000 0 0,1 102.0058,162.1983" />
<path d="M 102.0058,162.1983 L 82.5072,157.7479" stroke="#000000" stroke-width="2" stroke-opacity="1.0" />
<path d="M 107.9225,145.2893 L 89.9031,136.6116" stroke="#000000" stroke-width="2" stroke-opacity="1.0" />
<path d="M 117.4535,130.1208 L 101.8169,117.6510" stroke="#000000" stroke-width="2" stroke-opacity="1.0" />
<path d="M 117.4535,130.1208 A 80.0000,80.0000 0 0,1 130.1208,117.4535" />
<path d="M 145.2893,107.9225 L 136.6116,89.9031" stroke="#000000" stroke-width="2" stroke-opacity="1.0" />
<path d="M 180.0000,100.0000 L 180.0000,80.0000" stroke="#000000" stroke-width="2" stroke-opacity="1.0" />
<path d="M 180.0000,100.0000 A 80.0000,80.0000 0 0,1 197.8017,102.0058" />
<path d="M 197.8017,102.0058 A 80.0000,80.0000 0 0,1 214.7107,107.9225" />
<path d="M 214.7107,107.9225 A 80.0000,80.0000 0 0,1 229.8792,117.4535" />
<path d="M 229.8792,117.4535 L 242.3490,101.8169" stroke="#000000" stroke-width="2" stroke-opacity="1.0" />
<path d="M 242.5465,130.1208 L 258.1831,117.6510" stroke="#000000" stroke-width="2" stroke-opacity="1.0" />
<path d="M 257.9942,162.1983 L 277.4928,157.7479" stroke="#000000" stroke-width="2" stroke-opacity="1.0" />
<path d="M 257.9942,162.1983 A 80.0000,80.0000 0 0,1 260.0000,180.0000" />
<path d="M 277.4928,202.2521 L 296.9913,206.7025" stroke="#000000" stroke-width="2" stroke-opacity="1.0" />
<path d="M 277.4928,202.2521 A 100.0000,100.0000 0 0,1 270.0969,223.3884" />
<path d="M 258.1831,242.3490 L 273.8198,254.8188" stroke="#000000" stroke-width="2" stroke-opacity="1.0" />
<path d="M 258.1831,242.3490 A 100.0000,100.0000 0 0,1 242.3490,258.1831" />
<path d="M 242.3490,258.1831 L 254.8188,273.8198" stroke="#000000" stroke-width="2" stroke-opacity="1.0" />
<path d="M 223.3884,270.0969 A 100.0000,100.0000 0 0,1 202.2521,277.4928" />
<path d="M 202.2521,277.4928 A 100.0000,100.0000 0 0,1 180.0000,280.0000" />
<path d="M 136.6116,270.0969 L 127.9340,288.1163" stroke="#000000" stroke-width="2" stroke-opacity="1.0" />
<path d="M 136.6116,270.0969 A 100.0000,100.0000 0 0,1 117.6510,258.1831" />
<path d="M 117.6510,258.1831 L 105.1812,273.8198" stroke="#000000" stroke-width="2" stroke-opacity="1.0" />
<path d="M 117.6510,258.1831 A 100.0000,100.0000 0 0,1 101.8169,242.3490" />
<path d="M 82.5072,202.2521 A 100.0000,100.0000 0 0,1 80.0000,180.0000" />
<path d="M 80.0000,180.0000 L 60.0000,180.0000" stroke="#000000" stroke-width="2" stroke-opacity="1.0" />
<path d="M 80.0000,180.0000 A 100.0000,100.0000 0 0,1 82.5072,157.7479" />
<path d="M 89.9031,136.6116 A 100.0000,100.0000 0 0,1 101.8169,117.6510" />
<path d="M 101.8169,117.6510 L 86.1802,105.1812" stroke="#000000" stroke-width="2" stroke-opacity="1.0" />
<path d="M 117.6510,101.8169 A 100.0000,100.0000 0 0,1 136.6116,89.9031" />
<path d="M 136.6116,89.9031 A 100.0000,100.0000 0 0,1 157.7479,82.5072" />
<path d="M 157.7479,82.5072 L 153.2975,63.0087" stroke="#000000" stroke-width="2" stroke-opacity="1.0" />
<path d="M 180.0000,80.0000 L 180.0000,60.0000" stroke="#000000" stroke-width="2" stroke-opacity="1.0" />
<path d="M 202.2521,82.5072 L 206.7025,63.0087" stroke="#000000" stroke-width="2" stroke-opacity="1.0" />
<path d="M 202.2521,82.5072 A 100.0000,100.0000 0 0,1 223.3884,89.9031" />
<path d="M 242.3490,101.8169 A 100.0000,100.0000 0 0,1 258.1831,117.6510" />
<path d="M 258.1831,117.6510 L 273.8198,105.1812" stroke="#000000" stroke-width="2" stroke-opacity="1.0" />
<path d="M 258.1831,117.6510 A 100.0000,100.0000 0 0,1 270.0969,136.6116" />
<path d="M 270.0969,136.6116 L 288.1163,127.9340" stroke="#000000" stroke-width="2" stroke-opacity="1.0" />
<path d="M 277.4928,157.7479 L 296.9913,153.2975" stroke="#000000" stroke-width="2" stroke-opacity="1.0" />
<path d="M 277.4928,157.7479 A 100.0000,100.0000 0 0,1 280.0000,180.0000" />
<path d="M 280.0000,180.0000 L 300.0000,180.0000" stroke="#000000" stroke-width="2" stroke-opacity="1.0" />
<path d="M 300.0000,180.0000 A 120.0000,120.0000 0 0,1 296.9913,206.7025" />
<path d="M 288.1163,232.0660 L 306.1356,240.7437" stroke="#000000" stroke-width="2" stroke-opacity="1.0" />
<path d="M 273.8198,254.8188 L 289.4564,267.2886" stroke="#000000" stroke-width="2" stroke-opacity="1.0" />
<path d="M 254.8188,273.8198 L 267.2886,289.4564" stroke="#000000" stroke-width="2" stroke-opacity="1.0" />
<path d="M 254.8188,273.8198 A 120.0000,120.0000 0 0,1 232.0660,288.1163" />
<path d="M 232.0660,288.1163 L 240.7437,306.1356" stroke="#000000" stroke-width="2" stroke-opacity="1.0" />
<path d="M 232.0660,288.1163 A 120.0000,120.0000 0 0,1 206.7025,296.9913" />
<path d="M 180.0000,300.0000 L 180.0000,320.0000" stroke="#000000" stroke-width="2" stroke-opacity="1.0" />
<path d="M 153.2975,296.9913 L 148.8471,316.4899" stroke="#000000" stroke-width="2" stroke-opacity="1.0" />
<path d="M 153.2975,296.9913 A 120.0000,120.0000 0 0,1 127.9340,288.1163" />
<path d="M 127.9340,288.1163 L 119.2563,306.1356" stroke="#000000" stroke-width="2" stroke-opacity="1.0" />
<path d="M 105.1812,273.8198 L 92.7114,289.4564" stroke="#000000" stroke-width="2" stroke-opacity="1.0" />
<path d="M 86.1802,254.8188 L 70.5436,267.2886" stroke="#000000" stroke-width="2" stroke-opacity="1.0" />
<path d="M 86.1802,254.8188 A 120.0000,120.0000 0 0,1 71.8837,232.0660" />
<path d="M 71.8837,232.0660 L 53.8644,240.7437" stroke="#000000" stroke-width="2" stroke-opacity="1.0" />
<path d="M 71.8837,232.0660 A 120.0000,120.0000 0 0,1 63.0087,206.7025" />
<path d="M 63.0087,206.7025 L 43.5101,211.1529" stroke="#000000" stroke-width="2" stroke-opacity="1.0" />
<path d="M 63.0087,153.2975 A 120.0000,120.0000 0 0,1 71.8837,127.9340" />
<path d="M 71.8837,127.9340 A 120.0000,120.0000 0 0,1 86.1802,105.1812" />
<path d="M 86.1802,105.1812 L 70.5436,92.7114" stroke="#000000" stroke-width="2" stroke-opacity="1.0" />
<path d="M 105.1812,86.1802 L 92.7114,70.5436" stroke="#000000" stroke-width="2" stroke-opacity="1.0" />
<path d="M 105.1812,86.1802 A 120.0000,120.0000 0 0,1 127.9340,71.8837" />
<path d="M 127.9340,71.8837 A 120.0000,120.0000 0 0,1 153.2975,63.0087" />
<path d="M 153.2975,63.0087 L 148.8471,43.5101" stroke="#000000" stroke-width="2" stroke-opacity="1.0" />
<path d="M 153.2975,63.0087 A 120.0000,120.0000 0 0,1 180.0000,60.0000" />
<path d="M 206.7025,63.0087 L 211.1529,43.5101" stroke="#000000" stroke-width="2" stroke-opacity="1.0" />
<path d="M 206.7025,63.0087 A 120.0000,120.0000 0 0,1 232.0660,71.8837" />
<path d="M 254.8188,86.1802 L 267.2886,70.5436" stroke="#000000" stroke-width="2" stroke-opacity="1.0" />
<path d="M 273.8198,105.1812 L 289.4564,92.7114" stroke="#000000" stroke-width="2" stroke-opacity="1.0" />
<path d="M 288.1163,127.9340 L 306.1356,119.2563" stroke="#000000" stroke-width="2" stroke-opacity="1.0" />
<path d="M 340.0000,180.0000 A 160.0000,160.0000 0 0,1 335.9885,215.6033" />
<path d="M 316.4899,211.1529 L 335.9885,215.6033" stroke="#000000" stroke-width="2" stroke-opacity="1.0" />
<path d="M 335.9885,215.6033 A 160.0000,160.0000 0 0,1 324.1550,249.4214" />
<path d="M 306.1356,240.7437 L 324.1550,249.4214" stroke="#000000" stroke-width="2" stroke-opacity="1.0" />
<path d="M 306.1356,240.7437 A 140.0000,140.0000 0 0,1 289.4564,267.2886" />
<path d="M 324.1550,249.4214 A 160.0000,160.0000 0 0,1 305.0930,279.7584" />
<path d="M 305.0930,279.7584 A 160.0000,160.0000 0 0,1 279.7584,305.0930" />
<path d="M 279.7584,305.0930 A 160.0000,160.0000 0 0,1 249.4214,324.1550" />
<path d="M 240.7437,306.1356 A 140.0000,140.0000 0 0,1 211.1529,316.4899" />
<path d="M 249.4214,324.1550 A 160.0000,160.0000 0 0,1 215.6033,335.9885" />
<path d="M 211.1529,316.4899 A 140.0000,140.0000 0 0,1 180.0000,320.0000" />
<path d="M 215.6033,335.9885 A 160.0000,160.0000 0 0,1 180.0000,340.0000" />
<path d="M 180.0000,340.0000 A 160.0000,160.0000 0 0,1 144.3967,335.9885" />
<path d="M 148.8471,316.4899 L 144.3967,335.9885" stroke="#000000" stroke-width="2" stroke-opacity="1.0" />
<path d="M 144.3967,335.9885 A 160.0000,160.0000 0 0,1 110.5786,324.1550" />
<path d="M 80.2416,305.0930 A 160.0000,160.0000 0 0,1 54.9070,279.7584" />
<path d="M 54.9070,279.7584 A 160.0000,160.0000 0 0,1 35.8450,249.4214" />
<path d="M 35.8450,249.4214 A 160.0000,160.0000 0 0,1 24.0115,215.6033" />
<path d="M 43.5101,211.1529 A 140.0000,140.0000 0 0,1 40.0000,180.0000" />
<path d="M 24.0115,215.6033 A 160.0000,160.0000 0 0,1 20.0000,180.0000" />
<path d="M 40.0000,180.0000 L 20.0000,180.0000" stroke="#000000" stroke-width="2" stroke-opacity="1.0" />
<path d="M 20.0000,180.0000 A 160.0000,160.0000 0 0,1 24.0115,144.3967" />
<path d="M 43.5101,148.8471 L 24.0115,144.3967" stroke="#000000" stroke-width="2" stroke-opacity="1.0" />
<path d="M 24.0115,144.3967 A 160.0000,160.0000 0 0,1 35.8450,110.5786" />
<path d="M 53.8644,119.2563 L 35.8450,110.5786" stroke="#000000" stroke-width="2" stroke-opacity="1.0" />
<path d="M 35.8450,110.5786 A 160.0000,160.0000 0 0,1 54.9070,80.2416" />
<path d="M 70.5436,92.7114 A 140.0000,140.0000 0 0,1 92.7114,70.5436" />
<path d="M 54.9070,80.2416 A 160.0000,160.0000 0 0,1 80.2416,54.9070" />
<path d="M 80.2416,54.9070 A 160.0000,160.0000 0 0,1 110.5786,35.8450" />
<path d="M 119.2563,53.8644 L 110.5786,35.8450" stroke="#000000" stroke-width="2" stroke-opacity="1.0" />
<path d="M 119.2563,53.8644 A 140.0000,140.0000 0 0,1 148.8471,43.5101" />
<path d="M 110.5786,35.8450 A 160.0000,160.0000 0 0,1 144.3967,24.0115" />
<path d="M 144.3967,24.0115 A 160.0000,160.0000 0 0,1 180.0000,20.0000" />
<path d="M 180.0000,40.0000 L 180.0000,20.0000" stroke="#000000" stroke-width="2" stroke-opacity="1.0" />
<path d="M 180.0000,20.0000 A 160.0000,160.0000 0 0,1 215.6033,24.0115" />
<path d="M 211.1529,43.5101 L 215.6033,24.0115" stroke="#000000" stroke-width="2" stroke-opacity="1.0" />
<path d="M 211.1529,43.5101 A 140.0000,140.0000 0 0,1 240.7437,53.8644" />
<path d="M 215.6033,24.0115 A 160.0000,160.0000 0 0,1 249.4214,35.8450" />
<path d="M 240.7437,53.8644 A 140.0000,140.0000 0 0,1 267.2886,70.5436" />
<path d="M 249.4214,35.8450 A 160.0000,160.0000 0 0,1 279.7584,54.9070" />
<path d="M 279.7584,54.9070 A 160.0000,160.0000 0 0,1 305.0930,80.2416" />
<path d="M 305.0930,80.2416 A 160.0000,160.0000 0 0,1 324.1550,110.5786" />
<path d="M 306.1356,119.2563 A 140.0000,140.0000 0 0,1 316.4899,148.8471" />
<path d="M 324.1550,110.5786 A 160.0000,160.0000 0 0,1 335.9885,144.3967" />
<path d="M 316.4899,148.8471 A 140.0000,140.0000 0 0,1 320.0000,180.0000" />
<path d="M 335.9885,144.3967 A 160.0000,160.0000 0 0,1 340.0000,180.0000" />
</g>
</svg>