<?xml version="1.0" standalone="no"?>
<!-- Copyright (c) Şafak Gümüş. Tüm hakları saklıdır. Ticari kullanım yasal sorumluluk doğurur. -->
<!DOCTYPE svg PUBLIC "-//W3C//DTD SVG 1.1//EN" "http://www.w3.org/Graphics/SVG/1.1/DTD/svg11.dtd">
<svg width="240" height="240" version="1.1" xmlns="http://www.w3.org/2000/svg">
<g fill="none" stroke="#000000" stroke-width="2" stroke-linecap="round" stroke-linejoin="round">
<path d="M 138.4776,127.6537 A 20.0000,20.0000 0 0,1 134.1421,134.1421" />
<path d="M 134.1421,134.1421 A 20.0000,20.0000 0 0,1 127.6537,138.4776" />
<path d="M 127.6537,138.4776 A 20.0000,20.0000 0 0,1 120.0000,140.0000" />
<path d="M 120.0000,140.0000 A 20.0000,20.0000 0 0,1 112.3463,138.4776" />
<path d="M 112.3463,138.4776 A 20.0000,20.0000 0 0,1 105.8579,134.1421" />
<path d="M 105.8579,134.1421 A 20.0000,20.0000 0 0,1 101.5224,127.6537" />
<path d="M 101.5224,127.6537 A 20.0000,20.0000 0 0,1 100.0000,120.0000" />
<path d="M 100.0000,120.0000 A 20.0000,20.0000 0 0,1 101.5224,112.3463" />
<path d="M 101.5224,112.3463 A 20.0000,20.0000 0 0,1 105.8579,105.8579" />
<path d="M 105.8579,105.8579 A 20.0000,20.0000 0 0,1 112.3463,101.5224" />
<path d="M 112.3463,101.5224 A 20.0000,20.0000 0 0,1 120.0000,100.0000" />
<path d="M 120.0000,100.0000 A 20.0000,20.0000 0 0,1 127.6537,101.5224" />
<path d="M 127.6537,101.5224 A 20.0000,20.0000 0 0,1 134.1421,105.8579" />
<path d="M 160.0000,120.0000 A 40.0000,40.0000 0 0,1 156.9552,135.3073" />
<path d="M 156.9552,135.3073 A 40.0000,40.0000 0 0,1 148.2843,148.2843" />
<path d="M 148.2843,148.2843 L 162.4264,162.4264" stroke="#000000" stroke-width="2" stroke-opacity="1.0" />
<path d="M 148.2843,148.2843 A 40.0000,40.0000 0 0,1 135.3073,156.9552" />
<path d="M 135.3073,156.9552 L 142.9610,175.4328" stroke="#000000" stroke-width="2" stroke-opacity="1.0" />
<path d="M 135.3073,156.9552 A 40.0000,40.0000 0 0,1 120.0000,160.0000" />
<path d="M 120.0000,160.0000 A 40.0000,40.0000 0 0,1 104.6927,156.9552" />
<path d="M 104.6927,156.9552 L 97.0390,175.4328" stroke="#000000" stroke-width="2" stroke-opacity="1.0" />
<path d="M 91.7157,148.2843 A 40.0000,40.0000 0 0,1 83.0448,135.3073" />
<path d="M 83.0448,135.3073 A 40.0000,40.0000 0 0,1 80.0000,120.0000" />
<path d="M 80.0000,120.0000 A 40.0000,40.0000 0 0,1 83.0448,104.6927" />
<path d="M 83.0448,104.6927 L 64.5672,97.0390" stroke="#000000" stroke-width="2" stroke-opacity="1.0" />
<path d="M 83.0448,104.6927 A 40.0000,40.0000 0 0,1 91.7157,91.7157" />
<path d="M 91.7157,91.7157 A 40.0000,40.0000 0 0,1 104.6927,83.0448" />
<path d="M 104.6927,83.0448 A 40.0000,40.0000 0 0,1 120.0000,80.0000" />
<path d="M 120.0000,80.0000 A 40.0000,40.0000 0 0,1 135.3073,83.0448" />
<path d="M 135.3073,83.0448 A 40.0000,40.0000 0 0,1 148.2843,91.7157" />
<path d="M 148.2843,91.7157 L 162.4264,77.5736" stroke="#000000" stroke-width="2" stroke-opacity="1.0" />
<path d="M 148.2843,91.7157 A 40.0000,40.0000 0 0,1 156.9552,104.6927" />
<path d="M 156.9552,104.6927 L 175.4328,97.0390" stroke="#000000" stroke-width="2" stroke-opacity="1.0" />
<path d="M 156.9552,104.6927 A 40.0000,40.0000 0 0,1 160.0000,120.0000" />
<path d="M 175.4328,142.9610 L 193.9104,150.6147" stroke="#000000" stroke-width="2" stroke-opacity="1.0" />
<path d="M 175.4328,142.9610 A 60.0000,60.0000 0 0,1 162.4264,162.4264" />
<path d="M 142.9610,175.4328 L 150.6147,193.9104" stroke="#000000" stroke-width="2" stroke-opacity="1.0" />
<path d="M 120.0000,180.0000 A 60.0000,60.0000 0 0,1 97.0390,175.4328" />
<path d="M 77.5736,162.4264 L 63.4315,176.5685" stroke="#000000" stroke-width="2" stroke-opacity="1.0" />
<path d="M 64.5672,142.9610 L 46.0896,150.6147" stroke="#000000" stroke-width="2" stroke-opacity="1.0" />
<path d="M 60.0000,120.0000 A 60.0000,60.0000 0 0,1 64.5672,97.0390" />
<path d="M 64.5672,97.0390 L 46.0896,89.3853" stroke="#000000" stroke-width="2" stroke-opacity="1.0" />
<path d="M 77.5736,77.5736 L 63.4315,63.4315" stroke="#000000" stroke-width="2" stroke-opacity="1.0" />
<path d="M 97.0390,64.5672 L 89.3853,46.0896" stroke="#000000" stroke-width="2" stroke-opacity="1.0" />
<path d="M 97.0390,64.5672 A 60.0000,60.0000 0 0,1 120.0000,60.0000" />
<path d="M 120.0000,60.0000 L 120.0000,40.0000" stroke="#000000" stroke-width="2" stroke-opacity="1.0" />
<path d="M 142.9610,64.5672 L 150.6147,46.0896" stroke="#000000" stroke-width="2" stroke-opacity="1.0" />
<path d="M 142.9610,64.5672 A 60.0000,60.0000 0 0,1 162.4264,77.5736" />
<path d="M 175.4328,97.0390 A 60.0000,60.0000 0 0,1 180.0000,120.0000" />
<path d="M 180.0000,120.0000 L 200.0000,120.0000" stroke="#000000" stroke-width="2" stroke-opacity="1.0" />
<path d="M 220.0000,120.0000 A 100.0000,100.0000 0 0,1 212.3880,158.2683" />
<path d="M 193.9104,150.6147 A 80.0000,80.0000 0 0,1 176.5685,176.5685" />
<path d="M 212.3880,158.2683 A 100.0000,100.0000 0 0,1 190.7107,190.7107" />
<path d="M 190.7107,190.7107 A 100.0000,100.0000 0 0,1 158.2683,212.3880" />
<path d="M 150.6147,193.9104 A 80.0000,80.0000 0 0,1 120.0000,200.0000" />
<path d="M 158.2683,212.3880 A 100.0000,100.0000 0 0,1 120.0000,220.0000" />
<path d="M 120.0000,200.0000 A 80.0000,80.0000 0 0,1 89.3853,193.9104" />
<path d="M 120.0000,220.0000 A 100.0000,100.0000 0 0,1 81.7317,212.3880" />
<path d="M 81.7317,212.3880 A 100.0000,100.0000 0 0,1 49.2893,190.7107" />
<path d="M 63.4315,176.5685 L 49.2893,190.7107" stroke="#000000" stroke-width="2" stroke-opacity="1.0" />
<path d="M 49.2893,190.7107 A 100.0000,100.0000 0 0,1 27.6120,158.2683" />
<path d="M 46.0896,150.6147 A 80.0000,80.0000 0 0,1 40.0000,120.0000" />
<path d="M 27.6120,158.2683 A 100.0000,100.0000 0 0,1 20.0000,120.0000" />
<path d="M 40.0000,120.0000 A 80.0000,80.0000 0 0,1 46.0896,89.3853" />
<path d="M 20.0000,120.0000 A 100.0000,100.0000 0 0,1 27.6120,81.7317" />
<path d="M 27.6120,81.7317 A 100.0000,100.0000 0 0,1 49.2893,49.2893" />
<path d="M 63.4315,63.4315 L 49.2893,49.2893" stroke="#000000" stroke-width="2" stroke-opacity="1.0" />
<path d="M 63.4315,63.4315 A 80.0000,80.0000 0 0,1 89.3853,46.0896" />
<path d="M 49.2893,49.2893 A 100.0000,100.0000 0 0,1 81.7317,27.6120" />
<path d="M 81.7317,27.6120 A 100.0000,100.0000 0 0,1 120.0000,20.0000" />
<path d="M 150.6147,46.0896 L 158.2683,27.6120" stroke="#000000" stroke-width="2" stroke-opacity="1.0" />
<path d="M 158.2683,27.6120 A 100.0000,100.0000 0 0,1 190.7107,49.2893" />
<path d="M 176.5685,63.4315 A 80.0000,80.0000 0 0,1 193.9104,89.3853" />
<path d="M 190.7107,49.2893 A 100.0000,100.0000 0 0,1 212.3880,81.7317" />
<path d="M 193.9104,89.3853 A 80.0000,80.0000 0 0,1 200.0000,120.0000" />
<path d="M 212.3880,81.7317 A 100.0000,100.0000 0 0,1 220.0000,120.0000" />
</g>
</svg>