<?xml version="1.0" standalone="no"?>
<!-- Copyright (c) Şafak Gümüş. Tüm hakları saklıdır. Ticari kullanım yasal sorumluluk doğurur. -->
<!DOCTYPE svg PUBLIC "-//W3C//DTD SVG 1.1//EN" "http://www.w3.org/Graphics/SVG/1.1/DTD/svg11.dtd">
<svg width="300" height="300" version="1.1" xmlns="http://www.w3.org/2000/svg">
<g fill="none" stroke="#000000" stroke-width="2" stroke-linecap="round" stroke-linejoin="round">
<path d="M 180.0000,150.0000 A 30.0000,30.0000 0 0,1 178.9778,157.7646" />
<path d="M 178.9778,157.7646 A 30.0000,30.0000 0 0,1 175.9808,165.0000" />
<path d="M 175.9808,165.0000 A 30.0000,30.0000 0 0,1 171.2132,171.2132" />
<path d="M 171.2132,171.2132 L 185.3553,185.3553" stroke="#000000" stroke-width="2" stroke-opacity="1.0" />
<path d="M 150.0000,180.0000 A 30.0000,30.0000 0 0,1 142.2354,178.9778" />
<path d="M 142.2354,178.9778 A 30.0000,30.0000 0 0,1 135.0000,175.9808" />
<path d="M 135.0000,175.9808 A 30.0000,30.0000 0 0,1 128.7868,171.2132" />
<path d="M 128.7868,171.2132 A 30.0000,30.0000 0 0,1 124.0192,165.0000" />
<path d="M 124.0192,165.0000 A 30.0000,30.0000 0 0,1 121.0222,157.7646" />
<path d="M 121.0222,157.7646 A 30.0000,30.0000 0 0,1 120.0000,150.0000" />
<path d="M 120.0000,150.0000 A 30.0000,30.0000 0 0,1 121.0222,142.2354" />
<path d="M 121.0222,142.2354 A 30.0000,30.0000 0 0,1 124.0192,135.0000" />
<path d="M 124.0192,135.0000 L 106.6987,125.0000" stroke="#000000" stroke-width="2" stroke-opacity="1.0" />
<path d="M 124.0192,135.0000 A 30.0000,30.0000 0 0,1 128.7868,128.7868" />
<path d="M 128.7868,128.7868 A 30.0000,30.0000 0 0,1 135.0000,124.0192" />
<path d="M 135.0000,124.0192 A 30.0000,30.0000 0 0,1 142.2354,121.0222" />
<path d="M 142.2354,121.0222 A 30.0000,30.0000 0 0,1 150.0000,120.0000" />
<path d="M 150.0000,120.0000 A 30.0000,30.0000 0 0,1 157.7646,121.0222" />
<path d="M 157.7646,121.0222 A 30.0000,30.0000 0 0,1 165.0000,124.0192" />
<path d="M 165.0000,124.0192 A 30.0000,30.0000 0 0,1 171.2132,128.7868" />
<path d="M 171.2132,128.7868 A 30.0000,30.0000 0 0,1 175.9808,135.0000" />
<path d="M 175.9808,135.0000 A 30.0000,30.0000 0 0,1 178.9778,142.2354" />
<path d="M 178.9778,142.2354 L 198.2963,137.0590" stroke="#000000" stroke-width="2" stroke-opacity="1.0" />
<path d="M 178.9778,142.2354 A 30.0000,30.0000 0 0,1 180.0000,150.0000" />
<path d="M 198.2963,162.9410 L 217.6148,168.1173" stroke="#000000" stroke-width="2" stroke-opacity="1.0" />
<path d="M 198.2963,162.9410 A 50.0000,50.0000 0 0,1 193.3013,175.0000" />
<path d="M 193.3013,175.0000 L 210.6218,185.0000" stroke="#000000" stroke-width="2" stroke-opacity="1.0" />
<path d="M 185.3553,185.3553 A 50.0000,50.0000 0 0,1 175.0000,193.3013" />
<path d="M 175.0000,193.3013 A 50.0000,50.0000 0 0,1 162.9410,198.2963" />
<path d="M 162.9410,198.2963 L 168.1173,217.6148" stroke="#000000" stroke-width="2" stroke-opacity="1.0" />
<path d="M 162.9410,198.2963 A 50.0000,50.0000 0 0,1 150.0000,200.0000" />
<path d="M 150.0000,200.0000 A 50.0000,50.0000 0 0,1 137.0590,198.2963" />
<path d="M 137.0590,198.2963 A 50.0000,50.0000 0 0,1 125.0000,193.3013" />
<path d="M 125.0000,193.3013 A 50.0000,50.0000 0 0,1 114.6447,185.3553" />
<path d="M 114.6447,185.3553 A 50.0000,50.0000 0 0,1 106.6987,175.0000" />
<path d="M 106.6987,175.0000 L 89.3782,185.0000" stroke="#000000" stroke-width="2" stroke-opacity="1.0" />
<path d="M 106.6987,175.0000 A 50.0000,50.0000 0 0,1 101.7037,162.9410" />
<path d="M 100.0000,150.0000 L 80.0000,150.0000" stroke="#000000" stroke-width="2" stroke-opacity="1.0" />
<path d="M 100.0000,150.0000 A 50.0000,50.0000 0 0,1 101.7037,137.0590" />
<path d="M 101.7037,137.0590 A 50.0000,50.0000 0 0,1 106.6987,125.0000" />
<path d="M 106.6987,125.0000 A 50.0000,50.0000 0 0,1 114.6447,114.6447" />
<path d="M 114.6447,114.6447 A 50.0000,50.0000 0 0,1 125.0000,106.6987" />
<path d="M 125.0000,106.6987 L 115.0000,89.3782" stroke="#000000" stroke-width="2" stroke-opacity="1.0" />
<path d="M 137.0590,101.7037 L 131.8827,82.3852" stroke="#000000" stroke-width="2" stroke-opacity="1.0" />
<path d="M 137.0590,101.7037 A 50.0000,50.0000 0 0,1 150.0000,100.0000" />
<path d="M 150.0000,100.0000 A 50.0000,50.0000 0 0,1 162.9410,101.7037" />
<path d="M 162.9410,101.7037 L 168.1173,82.3852" stroke="#000000" stroke-width="2" stroke-opacity="1.0" />
<path d="M 162.9410,101.7037 A 50.0000,50.0000 0 0,1 175.0000,106.6987" />
<path d="M 175.0000,106.6987 A 50.0000,50.0000 0 0,1 185.3553,114.6447" />
<path d="M 185.3553,114.6447 L 199.4975,100.5025" stroke="#000000" stroke-width="2" stroke-opacity="1.0" />
<path d="M 193.3013,125.0000 A 50.0000,50.0000 0 0,1 198.2963,137.0590" />
<path d="M 198.2963,137.0590 A 50.0000,50.0000 0 0,1 200.0000,150.0000" />
<path d="M 200.0000,150.0000 L 220.0000,150.0000" stroke="#000000" stroke-width="2" stroke-opacity="1.0" />
<path d="M 210.6218,185.0000 L 227.9423,195.0000" stroke="#000000" stroke-width="2" stroke-opacity="1.0" />
<path d="M 210.6218,185.0000 A 70.0000,70.0000 0 0,1 199.4975,199.4975" />
<path d="M 199.4975,199.4975 A 70.0000,70.0000 0 0,1 185.0000,210.6218" />
<path d="M 185.0000,210.6218 A 70.0000,70.0000 0 0,1 168.1173,217.6148" />
<path d="M 168.1173,217.6148 A 70.0000,70.0000 0 0,1 150.0000,220.0000" />
<path d="M 131.8827,217.6148 L 126.7063,236.9333" stroke="#000000" stroke-width="2" stroke-opacity="1.0" />
<path d="M 131.8827,217.6148 A 70.0000,70.0000 0 0,1 115.0000,210.6218" />
<path d="M 115.0000,210.6218 L 105.0000,227.9423" stroke="#000000" stroke-width="2" stroke-opacity="1.0" />
<path d="M 100.5025,199.4975 L 86.3604,213.6396" stroke="#000000" stroke-width="2" stroke-opacity="1.0" />
<path d="M 89.3782,185.0000 L 72.0577,195.0000" stroke="#000000" stroke-width="2" stroke-opacity="1.0" />
<path d="M 82.3852,168.1173 L 63.0667,173.2937" stroke="#000000" stroke-width="2" stroke-opacity="1.0" />
<path d="M 80.0000,150.0000 L 60.0000,150.0000" stroke="#000000" stroke-width="2" stroke-opacity="1.0" />
<path d="M 82.3852,131.8827 A 70.0000,70.0000 0 0,1 89.3782,115.0000" />
<path d="M 89.3782,115.0000 A 70.0000,70.0000 0 0,1 100.5025,100.5025" />
<path d="M 100.5025,100.5025 L 86.3604,86.3604" stroke="#000000" stroke-width="2" stroke-opacity="1.0" />
<path d="M 100.5025,100.5025 A 70.0000,70.0000 0 0,1 115.0000,89.3782" />
<path d="M 131.8827,82.3852 A 70.0000,70.0000 0 0,1 150.0000,80.0000" />
<path d="M 168.1173,82.3852 L 173.2937,63.0667" stroke="#000000" stroke-width="2" stroke-opacity="1.0" />
<path d="M 185.0000,89.3782 L 195.0000,72.0577" stroke="#000000" stroke-width="2" stroke-opacity="1.0" />
<path d="M 199.4975,100.5025 L 213.6396,86.3604" stroke="#000000" stroke-width="2" stroke-opacity="1.0" />
<path d="M 210.6218,115.0000 A 70.0000,70.0000 0 0,1 217.6148,131.8827" />
<path d="M 217.6148,131.8827 A 70.0000,70.0000 0 0,1 220.0000,150.0000" />
<path d="M 236.9333,173.2937 A 90.0000,90.0000 0 0,1 227.9423,195.0000" />
<path d="M 213.6396,213.6396 A 90.0000,90.0000 0 0,1 195.0000,227.9423" />
<path d="M 195.0000,227.9423 A 90.0000,90.0000 0 0,1 173.2937,236.9333" />
<path d="M 173.2937,236.9333 A 90.0000,90.0000 0 0,1 150.0000,240.0000" />
<path d="M 150.0000,240.0000 L 150.0000,260.0000" stroke="#000000" stroke-width="2" stroke-opacity="1.0" />
<path d="M 150.0000,240.0000 A 90.0000,90.0000 0 0,1 126.7063,236.9333" />
<path d="M 105.0000,227.9423 L 95.0000,245.2628" stroke="#000000" stroke-width="2" stroke-opacity="1.0" />
<path d="M 105.0000,227.9423 A 90.0000,90.0000 0 0,1 86.3604,213.6396" />
<path d="M 63.0667,173.2937 A 90.0000,90.0000 0 0,1 60.0000,150.0000" />
<path d="M 60.0000,150.0000 L 40.0000,150.0000" stroke="#000000" stroke-width="2" stroke-opacity="1.0" />
<path d="M 60.0000,150.0000 A 90.0000,90.0000 0 0,1 63.0667,126.7063" />
<path d="M 63.0667,126.7063 A 90.0000,90.0000 0 0,1 72.0577,105.0000" />
<path d="M 72.0577,105.0000 L 54.7372,95.0000" stroke="#000000" stroke-width="2" stroke-opacity="1.0" />
<path d="M 86.3604,86.3604 L 72.2183,72.2183" stroke="#000000" stroke-width="2" stroke-opacity="1.0" />
<path d="M 86.3604,86.3604 A 90.0000,90.0000 0 0,1 105.0000,72.0577" />
<path d="M 105.0000,72.0577 A 90.0000,90.0000 0 0,1 126.7063,63.0667" />
<path d="M 126.7063,63.0667 A 90.0000,90.0000 0 0,1 150.0000,60.0000" />
<path d="M 173.2937,63.0667 L 178.4701,43.7482" stroke="#000000" stroke-width="2" stroke-opacity="1.0" />
<path d="M 173.2937,63.0667 A 90.0000,90.0000 0 0,1 195.0000,72.0577" />
<path d="M 213.6396,86.3604 A 90.0000,90.0000 0 0,1 227.9423,105.0000" />
<path d="M 227.9423,105.0000 L 245.2628,95.0000" stroke="#000000" stroke-width="2" stroke-opacity="1.0" />
<path d="M 227.9423,105.0000 A 90.0000,90.0000 0 0,1 236.9333,126.7063" />
<path d="M 236.9333,126.7063 L 256.2518,121.5299" stroke="#000000" stroke-width="2" stroke-opacity="1.0" />
<path d="M 240.0000,150.0000 L 260.0000,150.0000" stroke="#000000" stroke-width="2" stroke-opacity="1.0" />
<path d="M 280.0000,150.0000 A 130.0000,130.0000 0 0,1 275.5704,183.6465" />
<path d="M 256.2518,178.4701 A 110.0000,110.0000 0 0,1 245.2628,205.0000" />
<path d="M 275.5704,183.6465 A 130.0000,130.0000 0 0,1 262.5833,215.0000" />
<path d="M 245.2628,205.0000 L 262.5833,215.0000" stroke="#000000" stroke-width="2" stroke-opacity="1.0" />
<path d="M 245.2628,205.0000 A 110.0000,110.0000 0 0,1 227.7817,227.7817" />
<path d="M 262.5833,215.0000 A 130.0000,130.0000 0 0,1 241.9239,241.9239" />
<path d="M 241.9239,241.9239 A 130.0000,130.0000 0 0,1 215.0000,262.5833" />
<path d="M 205.0000,245.2628 A 110.0000,110.0000 0 0,1 178.4701,256.2518" />
<path d="M 215.0000,262.5833 A 130.0000,130.0000 0 0,1 183.6465,275.5704" />
<path d="M 178.4701,256.2518 A 110.0000,110.0000 0 0,1 150.0000,260.0000" />
<path d="M 183.6465,275.5704 A 130.0000,130.0000 0 0,1 150.0000,280.0000" />
<path d="M 150.0000,260.0000 A 110.0000,110.0000 0 0,1 121.5299,256.2518" />
<path d="M 150.0000,280.0000 A 130.0000,130.0000 0 0,1 116.3535,275.5704" />
<path d="M 116.3535,275.5704 A 130.0000,130.0000 0 0,1 85.0000,262.5833" />
<path d="M 95.0000,245.2628 A 110.0000,110.0000 0 0,1 72.2183,227.7817" />
<path d="M 85.0000,262.5833 A 130.0000,130.0000 0 0,1 58.0761,241.9239" />
<path d="M 72.2183,227.7817 A 110.0000,110.0000 0 0,1 54.7372,205.0000" />
<path d="M 58.0761,241.9239 A 130.0000,130.0000 0 0,1 37.4167,215.0000" />
<path d="M 54.7372,205.0000 L 37.4167,215.0000" stroke="#000000" stroke-width="2" stroke-opacity="1.0" />
<path d="M 37.4167,215.0000 A 130.0000,130.0000 0 0,1 24.4296,183.6465" />
<path d="M 43.7482,178.4701 L 24.4296,183.6465" stroke="#000000" stroke-width="2" stroke-opacity="1.0" />
<path d="M 24.4296,183.6465 A 130.0000,130.0000 0 0,1 20.0000,150.0000" />
<path d="M 40.0000,150.0000 A 110.0000,110.0000 0 0,1 43.7482,121.5299" />
<path d="M 20.0000,150.0000 A 130.0000,130.0000 0 0,1 24.4296,116.3535" />
<path d="M 43.7482,121.5299 L 24.4296,116.3535" stroke="#000000" stroke-width="2" stroke-opacity="1.0" />
<path d="M 24.4296,116.3535 A 130.0000,130.0000 0 0,1 37.4167,85.0000" />
<path d="M 37.4167,85.0000 A 130.0000,130.0000 0 0,1 58.0761,58.0761" />
<path d="M 72.2183,72.2183 A 110.0000,110.0000 0 0,1 95.0000,54.7372" />
<path d="M 58.0761,58.0761 A 130.0000,130.0000 0 0,1 85.0000,37.4167" />
<path d="M 121.5299,43.7482 A 110.0000,110.0000 0 0,1 150.0000,40.0000" />
<path d="M 116.3535,24.4296 A 130.0000,130.0000 0 0,1 150.0000,20.0000" />
<path d="M 150.0000,40.0000 A 110.0000,110.0000 0 0,1 178.4701,43.7482" />
<path d="M 150.0000,20.0000 A 130.0000,130.0000 0 0,1 183.6465,24.4296" />
<path d="M 183.6465,24.4296 A 130.0000,130.0000 0 0,1 215.0000,37.4167" />
<path d="M 205.0000,54.7372 A 110.0000,110.0000 0 0,1 227.7817,72.2183" />
<path d="M 215.0000,37.4167 A 130.0000,130.0000 0 0,1 241.9239,58.0761" />
<path d="M 227.7817,72.2183 L 241.9239,58.0761" stroke="#000000" stroke-width="2" stroke-opacity="1.0" />
<path d="M 241.9239,58.0761 A 130.0000,130.0000 0 0,1 262.5833,85.0000" />
<path d="M 262.5833,85.0000 A 130.0000,130.0000 0 0,1 275.5704,116.3535" />
<path d="M 256.2518,121.5299 A 110.0000,110.0000 0 0,1 260.0000,150.0000" />
<path d="M 275.5704,116.3535 A 130.0000,130.0000 0 0,1 280.0000,150.0000" />
<path d="M 260.0000,150.0000 L 280.0000,150.0000" stroke="#000000" stroke-width="2" stroke-opacity="1.0" />
</g>
</svg>